<svg xmlns="http://www.w3.org/2000/svg" viewBox="0 0 256 256"><defs><style>.cls-1{fill:#404041;}</style></defs><title>dot01</title><g id="dot01"><path class="cls-1" d="M71.34,47.93A14.37,14.37,0,0,0,54.29,70.7,15.46,15.46,0,1,0,71.34,47.93ZM67.67,76.47a13.45,13.45,0,0,1-7.33-2.17A14.36,14.36,0,0,0,76.5,52.72a13.51,13.51,0,0,1-8.83,23.75Z"/><path class="cls-1" d="M70.89,91.42a14.36,14.36,0,0,0-16.45,23.13A15.47,15.47,0,1,0,70.89,91.42Zm-3.22,28.66a13.45,13.45,0,0,1-7-2,14,14,0,0,0,3.8.53A14.36,14.36,0,0,0,76.34,96.19a13.52,13.52,0,0,1-8.67,23.89Z"/><path class="cls-1" d="M155.4,48.17a14.17,14.17,0,0,0-6.56-1.6,14.35,14.35,0,0,0-11.43,23.05,15.46,15.46,0,1,0,18-21.45Zm-4,28.46a13.39,13.39,0,0,1-7.19-2.09,14.36,14.36,0,0,0,17.22-20.47,13.5,13.5,0,0,1-10,22.56Z"/><path class="cls-1" d="M155.39,91.77a14.36,14.36,0,0,0-17.76,21.9,15.46,15.46,0,1,0,17.76-21.9Zm-4,28.47a13.43,13.43,0,0,1-7.28-2.14A14.36,14.36,0,0,0,161,97.19a13.53,13.53,0,0,1-9.6,23Z"/><path class="cls-1" d="M69,135a14.36,14.36,0,0,0-14.65,24.45A15.46,15.46,0,1,0,69,135Zm-2.19,28.83a13.41,13.41,0,0,1-6.34-1.58,14.52,14.52,0,0,0,2.73.27A14.37,14.37,0,0,0,74.38,139.1a13.53,13.53,0,0,1-7.54,24.75Z"/><path class="cls-1" d="M70.73,179A14.36,14.36,0,0,0,52.61,200,15.47,15.47,0,1,0,70.73,179Zm-3.89,28.49a13.36,13.36,0,0,1-7-2,14.19,14.19,0,0,0,4.63.78,14.35,14.35,0,0,0,12.73-21,13.51,13.51,0,0,1-10.34,22.22Z"/><path class="cls-1" d="M155.75,135.91a14.37,14.37,0,0,0-19.23,21,15.47,15.47,0,1,0,19.23-21ZM150.6,164a13.44,13.44,0,0,1-8.42-3,14.35,14.35,0,0,0,18.21-19.87A13.51,13.51,0,0,1,150.6,164Z"/><path class="cls-1" d="M154.36,179.1a14.36,14.36,0,0,0-18,21.11,15.47,15.47,0,1,0,18-21.11Zm-3.76,28.52a13.35,13.35,0,0,1-6.89-1.91,14.09,14.09,0,0,0,4.52.74,14.36,14.36,0,0,0,12.72-21,13.5,13.5,0,0,1-10.35,22.21Z"/><path class="cls-1" d="M113.75,48.52A14.36,14.36,0,0,0,95.52,70.15a15.47,15.47,0,1,0,18.23-21.63ZM109.41,76.9a13.48,13.48,0,0,1-7.75-2.46,14.36,14.36,0,0,0,17.42-20.51,13.51,13.51,0,0,1-9.67,23Z"/><path class="cls-1" d="M113.8,92.14a14.35,14.35,0,0,0-18.48,21.2,15.47,15.47,0,1,0,18.48-21.2Zm-4.39,28.36a13.41,13.41,0,0,1-7.66-2.39,14.34,14.34,0,0,0,17.69-20.17,13.49,13.49,0,0,1-10,22.56Z"/><path class="cls-1" d="M112.47,135.79A14.35,14.35,0,0,0,95,158.06a15.47,15.47,0,1,0,17.52-22.27Zm-3.89,28.48a13.45,13.45,0,0,1-7.38-2.2,14.36,14.36,0,0,0,18.7-13.7,14.21,14.21,0,0,0-2.15-7.53,13.5,13.5,0,0,1-9.17,23.43Z"/><path class="cls-1" d="M113.57,179.72a14.35,14.35,0,0,0-19.29,20.54,15.47,15.47,0,1,0,19.29-20.54Zm-5,28.16a13.42,13.42,0,0,1-8.08-2.7,14.35,14.35,0,0,0,18.32-19.64,13.51,13.51,0,0,1-10.24,22.34Z"/><path class="cls-1" d="M191.66,78.75a15.46,15.46,0,0,0,7-29.27,14.37,14.37,0,0,0-22.15,16.87A15.51,15.51,0,0,0,191.66,78.75Zm-1.94-3.64a14.37,14.37,0,0,0,14.37-14.37,14.14,14.14,0,0,0-.56-3.93,13.36,13.36,0,0,1,1.66,6.47A13.51,13.51,0,0,1,182.32,73,14.23,14.23,0,0,0,189.72,75.11Z"/><path class="cls-1" d="M199,93.24a14.36,14.36,0,0,0-22.48,16.56A15.47,15.47,0,1,0,199,93.24Zm6.24,13.64a13.52,13.52,0,0,1-23.15,9.5,14.33,14.33,0,0,0,21.54-15.87A13.44,13.44,0,0,1,205.19,106.88Z"/><path class="cls-1" d="M196.9,136.43a14.22,14.22,0,0,0-8-2.43,14.35,14.35,0,0,0-13.14,20.16,15.47,15.47,0,1,0,21.13-17.73Zm7.46,14.23a13.52,13.52,0,0,1-22.14,10.42,14.38,14.38,0,0,0,20.4-17A13.47,13.47,0,0,1,204.36,150.66Z"/><path class="cls-1" d="M195.92,179.67a14.23,14.23,0,0,0-7.21-2,14.37,14.37,0,0,0-12.63,21.23,15.47,15.47,0,1,0,19.84-19.27Zm8.44,14.6a13.51,13.51,0,0,1-21.39,11A14.36,14.36,0,0,0,202,186.68,13.47,13.47,0,0,1,204.36,194.27Z"/></g></svg>