<?xml version="1.0" encoding="UTF-8"?>
<svg id="Layer_2" xmlns="http://www.w3.org/2000/svg" viewBox="0 0 595.24 612.33">
  <defs>
    <style>
      .cls-1 {
        fill: #fff;
      }
    </style>
  </defs>
  <g id="Layer_2-2" data-name="Layer_2">
    <g id="Lockup_Grid">
      <g>
        <g>
          <g>
            <polygon class="cls-1" points="297.49 82.79 303.17 100.27 321.54 100.27 306.68 111.07 312.36 128.54 297.49 117.74 282.63 128.54 288.31 111.07 273.44 100.27 291.82 100.27 297.49 82.79"/>
            <polygon class="cls-1" points="297.49 365.16 303.17 382.63 321.54 382.63 306.68 393.43 312.36 410.9 297.49 400.1 282.63 410.9 288.31 393.43 273.44 382.63 291.82 382.63 297.49 365.16"/>
            <polygon class="cls-1" points="438.93 224.44 444.61 241.92 462.98 241.92 448.11 252.72 453.79 270.2 438.93 259.39 424.07 270.2 429.74 252.72 414.88 241.92 433.25 241.92 438.93 224.44"/>
            <polygon class="cls-1" points="156.31 223.97 161.99 241.45 180.37 241.45 165.5 252.25 171.18 269.72 156.31 258.92 141.45 269.72 147.13 252.25 132.26 241.45 150.64 241.45 156.31 223.97"/>
            <polygon class="cls-1" points="175.14 152.44 180.82 169.92 199.19 169.92 184.33 180.72 190 198.19 175.14 187.39 160.27 198.19 165.95 180.72 151.08 169.92 169.46 169.92 175.14 152.44"/>
            <polygon class="cls-1" points="225.49 100.67 231.17 118.15 249.55 118.15 234.68 128.95 240.36 146.42 225.49 135.62 210.63 146.42 216.3 128.95 201.44 118.15 219.81 118.15 225.49 100.67"/>
            <polygon class="cls-1" points="417.5 152.44 423.18 169.92 441.55 169.92 426.69 180.72 432.36 198.19 417.5 187.39 402.63 198.19 408.31 180.72 393.45 169.92 411.82 169.92 417.5 152.44"/>
            <polygon class="cls-1" points="366.67 100.67 372.35 118.15 390.73 118.15 375.86 128.95 381.54 146.42 366.67 135.62 351.81 146.42 357.49 128.95 342.62 118.15 361 118.15 366.67 100.67"/>
            <polygon class="cls-1" points="175.14 293.62 180.82 311.1 199.19 311.1 184.33 321.9 190 339.37 175.14 328.58 160.27 339.37 165.95 321.9 151.08 311.1 169.46 311.1 175.14 293.62"/>
            <polygon class="cls-1" points="225.49 343.98 231.17 361.45 249.55 361.45 234.68 372.26 240.36 389.73 225.49 378.93 210.63 389.73 216.3 372.26 201.44 361.45 219.81 361.45 225.49 343.98"/>
            <polygon class="cls-1" points="417.5 293.62 423.18 311.1 441.55 311.1 426.69 321.9 432.36 339.37 417.5 328.58 402.63 339.37 408.31 321.9 393.45 311.1 411.82 311.1 417.5 293.62"/>
            <polygon class="cls-1" points="366.67 343.98 372.35 361.45 390.73 361.45 375.86 372.26 381.54 389.73 366.67 378.93 351.81 389.73 357.49 372.26 342.62 361.45 361 361.45 366.67 343.98"/>
          </g>
          <g>
            <path class="cls-1" d="M210.75,48.66V.82h35.48v8.09h-25.81v10.61h24.02v8.06h-24.02v13.02h26.73v8.06h-36.4Z"/>
            <path class="cls-1" d="M260.06,25.03c0-4.87.73-8.96,2.19-12.27,1.09-2.44,2.57-4.62,4.45-6.56s3.94-3.37,6.19-4.31c2.98-1.26,6.42-1.89,10.31-1.89,7.05,0,12.69,2.19,16.92,6.56s6.35,10.45,6.35,18.24-2.1,13.77-6.3,18.13c-4.2,4.36-9.81,6.54-16.84,6.54s-12.77-2.17-16.97-6.51c-4.2-4.34-6.3-10.32-6.3-17.93h0ZM270.01,24.7c0,5.42,1.25,9.53,3.75,12.32,2.5,2.8,5.68,4.19,9.53,4.19s7.01-1.39,9.48-4.16,3.7-6.93,3.7-12.48-1.2-9.57-3.61-12.27c-2.4-2.7-5.6-4.05-9.58-4.05s-7.19,1.37-9.63,4.1-3.66,6.85-3.66,12.35h.02Z"/>
            <path class="cls-1" d="M320.39,48.66V.82h9.66v47.84h-9.66Z"/>
            <path class="cls-1" d="M376.55,31.07l9.37,2.97c-1.44,5.22-3.82,9.1-7.16,11.64s-7.58,3.8-12.71,3.8c-6.35,0-11.58-2.17-15.67-6.51-4.09-4.34-6.14-10.27-6.14-17.8,0-7.96,2.06-14.15,6.17-18.55C354.52,2.22,359.93.01,366.63.01c5.85,0,10.61,1.73,14.26,5.19,2.17,2.05,3.81,4.98,4.9,8.81l-9.56,2.28c-.57-2.48-1.75-4.44-3.54-5.87-1.8-1.44-3.98-2.15-6.54-2.15-3.55,0-6.43,1.27-8.63,3.82-2.21,2.54-3.31,6.67-3.31,12.37,0,6.05,1.09,10.36,3.26,12.92,2.17,2.57,5,3.85,8.49,3.85,2.57,0,4.78-.82,6.63-2.45s3.18-4.2,3.98-7.7h-.02Z"/>
          </g>
          <path class="cls-1" d="M595.24,314.71c0,164.37-133.25,297.62-297.62,297.62S0,479.08,0,314.71C0,197.99,67.18,96.98,164.97,48.2c-65.31,43.12-108.4,117.19-108.4,201.32,0,133.13,107.92,241.05,241.05,241.05s241.05-107.92,241.05-241.05c0-84.13-43.1-158.19-108.4-201.32,97.79,48.78,164.97,149.79,164.97,266.51h0Z"/>
        </g>
        <path class="cls-1" d="M358.44,246.35c-.1-2.27-1.65-3.82-3-5.48.31-2.48.1-4.55-1.55-6.51-1.76-2.17-4.86-3.41-7.54-3.62-4.55-.41-9.2,1.65-12.81,4.24-1.55,1.14-3.1,2.48-4.75,3.41,1.45-5.06,3.62-7.65,7.23-11.26,1.34-1.34,2.69-2.69,4.03-3.93,1.34-1.34,2.89-2.38,3.62-4.24,1.45-4.03.31-8.58.31-12.71.1-3.51.52-7.03,1.14-10.54,2.07-12.19,5.37-19.63,11.99-30.07-5.89,1.45-10.23,4.65-13.43,9.92-1.24,2.27-2.38,4.75-2.89,7.34-.21.83-.21,1.76-.41,2.58-.1-3.72.21-7.54.72-11.16.21-1.45.31-2.89.72-4.24-3.93,1.96-6.82,5.79-8.16,9.82-1.24,4.03-1.34,7.75-.21,11.68-2.07-3.82-3.51-8.99-4.44-13.23-2.89,2.79-4.24,6.72-4.24,10.64-.1,2.38.31,4.86,1.34,6.92v.21c-.83-.93-1.76-2.79-2.38-3.93-1.45-2.27-2.79-4.55-4.44-6.61-1.86,3.2-2.69,7.23-1.76,10.85.62,2.27,1.76,3.93,3.31,5.68-1.45-1.14-2.89-2.38-4.24-3.62-1.45-1.24-2.89-2.69-4.55-3.82-1.14,2.89-1.65,5.99-.31,8.78.62,1.45,1.65,2.48,2.89,3.51-1.24-.72-2.48-1.45-3.82-2.07-1.76-.72-3.51-1.34-5.17-2.07.1,2.79.31,5.89,2.48,7.85.31.41.72.62,1.03.93-2.58-.41-5.27-.1-7.96-.21.31,2.07,1.14,4.24,3,5.48.21.21.52.41.83.52-1.14-.21-4.86-.72-5.89,0-.1.1-.21.21-.21.41-.21.83.21,1.96.83,2.69.72.93,1.86,1.55,3,1.96-1.14,0-4.55.1-5.27,1.03-.1.21-.1.41-.1.62.21.83,1.24,1.55,1.96,1.96.62.31,1.24.62,1.96.83-1.34.1-2.38.21-3.62.93-4.44-3.62-7.96-6.82-11.68-11.37-1.45-1.55-2.58-3.31-3.82-4.96-.52-.72-1.03-1.45-1.55-2.17s-.93-1.45-1.45-2.27c-.41-.72-.93-1.45-1.34-2.17-.52-.72-.93-1.55-1.34-2.27-.41-.83-.93-1.55-1.34-2.27-.41-.83-.83-1.55-1.14-2.38-.41-.83-.83-1.55-1.24-2.38-.31-.83-.72-1.55-1.03-2.38-.41-.83-.72-1.65-1.03-2.48-.31-.72-.62-1.55-1.03-2.38-.31-.83-.52-1.65-.83-2.48s-.62-1.65-.83-2.48c-.31-.83-.62-1.65-.83-2.58-.21-.83-.52-1.65-.72-2.48-.21-.83-.41-1.65-.62-2.58-.21-.83-.41-1.65-.62-2.58-.62-2.69-1.14-5.58-1.45-8.37-.21-2.17-.31-4.24-.31-6.41-.1-2.07,0-4.24.1-6.41.1-1.03.72-4.75.52-5.58-3.93,3-6.3,7.44-7.03,12.3-.52,3.41-.21,6.82.41,10.23-1.14-2.07-2.07-4.96-2.89-7.23-1.45-4.03-2.79-8.06-3.93-12.3-2.79,3.82-3.72,10.02-3,14.67.41,3,1.45,5.79,2.69,8.47.31.52,1.24,2.07,1.34,2.58-.83-.83-2.07-3.31-2.79-4.44-1.03-1.76-6.82-11.16-8.27-11.16-.41.21-.62.62-.72,1.03-1.45,4.34-.21,8.89,1.86,12.81.62,1.14,1.34,2.27,2.17,3.41.41.52,2.07,2.48,2.17,2.89-.83-.52-1.65-1.55-2.48-2.17-1.86-1.65-6.51-4.96-8.78-5.68-.83,3-.31,6.1,1.14,8.78,1.86,3.31,4.75,5.99,7.85,8.06-1.76-.72-3.41-1.65-5.17-2.38-1.65-.72-3.41-1.24-5.17-1.86-.72-.21-1.76-.72-2.58-.72-.21.41,0,1.03.1,1.45,1.34,4.86,5.06,8.68,9.4,11.16.83.41,1.65.83,2.48,1.24.31.1.83.21,1.14.41h-.31c-.52-.1-.93-.31-1.34-.52-1.03-.31-2.17-.62-3.2-.93-2.89-.62-5.99-.83-8.89-.72.83,3.31,3.93,5.79,6.72,7.44,2.48,1.45,5.37,2.48,8.27,3.31,1.03.31,2.17.52,3.2.93-1.96-.31-3.93-.72-5.89-.93-2.79-.31-5.89-.1-8.78.31-.52.1-1.65.1-2.07.41-.07,0-.14.03-.21.1,0,.72.93,1.76,1.34,2.27,2.79,3.1,6.3,4.65,10.44,5.17,1.14.1,2.38.21,3.51.31-4.44.21-9.4.21-13.54,2.17.83,2.38,4.24,4.86,6.41,5.99,1.45.72,2.89,1.14,4.44,1.65-1.14.21-4.13.83-4.75,1.76-.21.21-.1.41-.1.62.52,1.45,4.13,3.2,5.48,3.72,1.55.52,3.31.62,4.96.62-1.65.41-4.86,1.03-5.89,2.48-.1.21-.21.31-.21.52.31,1.24,1.96,2.27,3,2.89,1.55.83,3,1.03,4.75,1.14-1.03.41-2.69,1.24-3.2,2.38-.1.31-.1.62,0,.83.52,1.14,2.69,1.86,3.82,2.17,1.24.31,2.58.52,3.93.62-.93.83-1.96,1.96-1.96,3.2,0,.41.1.83.41,1.14.83.72,2.07.83,3.1.83.62-.1,1.24-.21,1.76-.21-.62.83-1.55,1.76-1.34,2.89,0,.41.31.83.62,1.03,1.03.72,3.1.52,4.24.21-.41.72-1.03,1.55-.93,2.38.1.41.41.72.72.93,1.45.93,3.41.62,4.96.21-.52.72-1.24,1.65-1.03,2.58,0,.31.21.62.52.83,1.03.72,3.1.41,4.24.1.21,0,.41-.1.52-.1-.31.72-.72,1.76-.31,2.58.1.31.41.52.72.62,1.14.31,2.69-.41,3.62-.93.1-.1.31-.21.52-.31-.21.93-.52,2.17.1,3.1.21.31.62.52,1.03.62,1.34.21,3-1.03,4.03-1.86.31-.21.72-.52,1.03-.83-.31.72-.83,1.96-.52,2.69.1.21.21.41.52.52,1.34.41,4.86-2.48,6.2-3.1-1.45,2.27-3.2,4.24-5.17,5.99-1.03,1.03-2.07,2.07-3.1,3-5.06,4.24-10.85,7.54-16.43,10.85-2.27,1.34-4.44,2.79-6.72,4.03-.62.31-3.82,1.65-3.82,2.27,1.03.62,5.58-.1,6.82-.41-2.69,2.48-15.29,11.37-15.71,13.74,0,.1.1.21.31.21.41.21,1.14.1,1.65.1,3.72-.41,7.54-1.86,10.95-3.41-1.24,1.55-2.69,3.1-3.93,4.55-1.86,2.17-7.85,8.27-7.54,11.16,0,.21,0,.41.21.52.31.31.83.21,1.24.21,2.38-.52,5.68-2.38,7.65-3.72-.93,1.65-3.2,4.86-2.58,6.82,0,.21.1.31.31.41.41.31,1.24,0,1.65-.21,1.55-.62,2.79-1.86,3.93-3-.31,1.03-.83,2.69-.21,3.72.21.21.52.41.93.52,1.65.31,3.72-1.14,4.96-2.07,1.03-.83,1.96-1.65,2.89-2.69-.31,1.34-.83,3.72-.1,4.86.21.31.41.52.72.62.72.1,1.55-.31,2.17-.62,1.55-1.14,2.89-2.58,3.93-4.24.21,1.14.52,3.1,1.45,3.72.21.21.52.31.72.21,1.45-.21,3-2.48,3.72-3.51,1.24-2.07,2.38-4.44,3.2-6.72.31.62.93,1.96,1.76,2.07.31.1.72-.1,1.03-.31,1.45-1.24,2.48-3.51,3.1-5.27.31-1.03.62-2.07.83-3.1.31.62.62,1.45,1.34,1.65.31.21.72.21,1.03,0,1.24-.52,1.96-3,2.27-4.13.31-1.03.62-2.17.83-3.2s.41-2.17.52-3.2c.21-1.14.31-2.17.41-3.31,0-1.03.1-2.17.1-3.31,1.55.83,3.1,1.55,4.86,1.86,1.14.21,2.27.1,3.31.52.52.1.93.52,1.14,1.03.21.72,0,1.45-.31,2.07-.41.72-.93,1.14-1.55,1.55,1.03,0,1.86-.31,2.58-1.14.31-.31.52-.72.72-1.03,1.55,1.24,2.38,3,2.58,4.96v1.45c0,.41-.1.93-.21,1.34,1.24-1.45,2.17-3.2,1.96-5.17-.1-1.34-.72-2.27-1.55-3.31,1.03,0,2.07-.1,2.79-.83.31-.41.52-.83.62-1.34,1.55,1.24,2.58,2.58,2.79,4.65,0,.52.1,1.03,0,1.65.93-1.65,1.55-3.41,1.14-5.27-.31-1.14-1.03-1.86-2.07-2.48-.93-.52-2.07-.72-2.89-1.45-.31-.52-.52-.93-.41-1.45.1-.31.31-.41.62-.52,1.03-.52,2.17-.93,3.2-1.45,1.24-.52,2.48-1.24,3.82-1.86,1.65-.83,3.31-1.65,4.96-2.58,3.93-2.58,7.65-6.2,10.33-10.02,1.96-2.58,3.51-5.48,4.75-8.37.93-2.07,1.76-4.24,2.58-6.41,1.45-3.72,3.51-9.4,7.85-10.54.41-.21.83-.21,1.24-.1,1.03.21,5.17,2.07,5.99,2.58.52.31.93.72,1.34,1.14.31-.41.31-1.24.21-1.76l.03.06ZM310.81,291.92c-.41.31-.93.52-1.34.72-.41-.31-.83-.62-1.34-.93-1.24-.83-2.07-1.65-2.27-3.2,1.65.52,3,.62,4.75.62.21.1.41.31.62.41.21.31.31.72.31,1.03,0,.62-.31,1.03-.72,1.34h-.01ZM348.63,240.36c-1.55,0-2.79-1.24-2.79-2.79,0-1.45,1.24-2.79,2.79-2.79s2.79,1.34,2.79,2.79c0,1.55-1.24,2.79-2.79,2.79Z"/>
      </g>
    </g>
  </g>
</svg>