<?xml version="1.0" encoding="UTF-8"?>
<svg id="Layer_2" xmlns="http://www.w3.org/2000/svg" xmlns:xlink="http://www.w3.org/1999/xlink" viewBox="0 0 385.8 181.29">
  <defs>
    <style>
      .cls-1 {
        fill: url(#linear-gradient-2);
      }

      .cls-2 {
        fill: url(#linear-gradient-10);
      }

      .cls-3 {
        fill: url(#linear-gradient-12);
      }

      .cls-4 {
        fill: url(#linear-gradient-4);
      }

      .cls-5 {
        fill: url(#linear-gradient-3);
      }

      .cls-6 {
        fill: url(#linear-gradient-5);
      }

      .cls-7 {
        fill: url(#linear-gradient-8);
      }

      .cls-8 {
        fill: url(#linear-gradient-7);
      }

      .cls-9 {
        fill: url(#linear-gradient-9);
      }

      .cls-10 {
        fill: url(#linear-gradient-11);
      }

      .cls-11 {
        fill: url(#linear-gradient-6);
      }

      .cls-12 {
        fill: url(#linear-gradient);
      }
    </style>
    <linearGradient id="linear-gradient" x1="87.29" y1="-165.4" x2="82.72" y2="-5.65" gradientUnits="userSpaceOnUse">
      <stop offset=".45" stop-color="#49b649"/>
      <stop offset=".93" stop-color="#0e4c64"/>
    </linearGradient>
    <linearGradient id="linear-gradient-2" x1="54.4" y1="-166.34" x2="49.84" y2="-6.59" xlink:href="#linear-gradient"/>
    <linearGradient id="linear-gradient-3" x1="86.95" y1="-165.41" x2="82.39" y2="-5.66" xlink:href="#linear-gradient"/>
    <linearGradient id="linear-gradient-4" x1="124.87" y1="-164.32" x2="120.31" y2="-4.57" xlink:href="#linear-gradient"/>
    <linearGradient id="linear-gradient-5" x1="11.69" y1="-167.56" x2="7.12" y2="-7.81" xlink:href="#linear-gradient"/>
    <linearGradient id="linear-gradient-6" x1="18.49" y1="-167.36" x2="13.92" y2="-7.61" xlink:href="#linear-gradient"/>
    <linearGradient id="linear-gradient-7" x1="171.94" y1="-162.98" x2="167.38" y2="-3.23" xlink:href="#linear-gradient"/>
    <linearGradient id="linear-gradient-8" x1="21.98" y1="-167.26" x2="17.42" y2="-7.51" xlink:href="#linear-gradient"/>
    <linearGradient id="linear-gradient-9" x1="162.13" y1="-163.26" x2="157.56" y2="-3.51" xlink:href="#linear-gradient"/>
    <linearGradient id="linear-gradient-10" x1="344.28" y1="-28.36" x2="339.71" y2="131.39" xlink:href="#linear-gradient"/>
    <linearGradient id="linear-gradient-11" x1="258.78" y1="-30.8" x2="254.21" y2="128.95" xlink:href="#linear-gradient"/>
    <linearGradient id="linear-gradient-12" x1="303.49" y1="-29.52" x2="298.93" y2="130.23" xlink:href="#linear-gradient"/>
  </defs>
  <g id="Layer_1-2" data-name="Layer_1">
    <g>
      <g>
        <path class="cls-12" d="M8.71,78.21c3.53,0,6.26-1.64,8.89-3.81.83,3.34,3.43,5.17,7.3,5.17h74.55c3.81,0,6.81-.74,9.53-2.44,1.64,1.77,3.95,2.79,6.61,2.79,3.78,0,6.47-2.12,8.34-4.16,1.03,2.73,3.14,3.81,6,3.81h.01c9.91,0,14.73-6.87,27.28-6.87h3.74v-3.2h-2.79c-7.76,0-9.27-11.29-20.36-11.29-1.89,0-3.05.34-3.66.69v3.61c.95-.42,1.89-.61,3.26-.61,6.67,0,9.46,4.89,13.21,8.16-8.31,1.42-14.03,5.91-20.69,5.91-1.97,0-3.05-.95-3.87-3.2l-3.26-9.31c-1.03-2.86-2.52-3.81-5.45-3.81-5.85,0-10.95,3.81-10.95,10.41,0,1.49.27,2.85.74,4.08-2.04,1.22-4.48,1.83-7.7,1.83h0s-.03,0-.04,0h-18.58s-.04,0-.09,0h-18.56s-.03,0-.06,0h-18.58s-.04,0-.06,0h-18.52c-2.92,0-4.69-1.83-4.69-4.9v-18.37h-2.93v3.53l-8.15,3.13C4.36,61.2.07,63.77.07,69.76s3.95,8.45,8.64,8.45ZM116.12,63.3h3.62l3.26,9.59c-1.89,1.85-4.36,3.41-7.48,3.41-4.29,0-6.6-2.99-6.6-6.33,0-4.42,3.93-6.67,7.2-6.67ZM9.88,62.69l7.46-3.05v11.43c-2.71,2.04-4.95,3.55-8.63,3.55s-6.2-1.56-6.2-4.77c0-3.87,3.68-5.65,7.36-7.15Z"/>
        <path class="cls-1" d="M43.86,98.62l-14.7,37.14h3.53l4.38-11.07h17.41l4.39,11.07h3.52l-14.69-37.14h-3.84ZM38.2,121.77l7.6-19.23,7.57,19.23h-15.17Z"/>
        <polygon class="cls-5" points="89.18 114.87 68.57 114.87 68.57 98.62 65.05 98.62 65.05 135.76 68.57 135.76 68.57 117.79 89.18 117.79 89.18 135.76 92.7 135.76 92.7 98.62 89.18 98.62 89.18 114.87"/>
        <path class="cls-4" d="M116.89,132.25l-12.1-33.63h-5.45v37.14h3.39v-18.31c0-4.78,0-9.42-.13-14.2l-.07-1.92.8,2.25c1.53,4.51,3.06,8.96,4.65,13.47l6.71,18.71h4.39l6.71-18.71c1.6-4.51,3.12-8.95,4.65-13.47l.67-1.79-.07,1.46c-.13,4.78-.13,9.42-.13,14.2v18.31h3.39v-37.14h-5.32l-12.1,33.63Z"/>
        <g>
          <polygon class="cls-6" points="8.64 48.65 5.51 45.46 2.38 48.65 5.51 51.78 8.64 48.65"/>
          <polygon class="cls-11" points="15.44 48.65 12.31 45.46 9.18 48.65 12.31 51.78 15.44 48.65"/>
          <path class="cls-8" d="M167.43,78.21c0,6.87-2.93,7.76-7.9,7.76v3.61c7.62,0,10.82-2.86,10.82-11.84v-16.74h-2.93v17.22Z"/>
          <path class="cls-7" d="M27.71,108.57c0-6.24-4.25-9.95-15.03-9.95H0v37.14h3.52v-17.18h9.24c8.03,0,11.44,2.46,11.44,8.03v9.22h3.52v-9.22c0-4.78-1.86-7.84-5.99-9.36,4.19-1.59,5.99-4.57,5.99-8.69ZM12.68,115.87H3.52v-14.66h9.16c8.52,0,11.37,2.71,11.37,7.36s-2.85,7.3-11.37,7.3Z"/>
          <path class="cls-9" d="M151.65,98.62l-14.69,37.14h3.52l4.39-11.07h17.41l4.38,11.07h3.53l-14.7-37.14h-3.84ZM146.01,121.77l7.58-19.23,7.57,19.23h-15.15Z"/>
        </g>
      </g>
      <g>
        <path class="cls-2" d="M343.04,34.19c9.39,0,17.1-7.57,17.1-17.09s-7.72-17.1-17.1-17.1-17.24,7.57-17.24,17.1,7.72,17.09,17.24,17.09Z"/>
        <path class="cls-10" d="M257.4,34.19c9.39,0,17.1-7.7,17.1-17.09s-7.72-17.1-17.1-17.1-17.09,7.57-17.09,17.1,7.57,17.09,17.09,17.09Z"/>
        <path class="cls-3" d="M383.27,68.15l-23.48-23.57c-1.62-1.58-3.75-2.47-6.05-2.47h-21.45c-2.25,0-4.44.89-6.05,2.47l-26.04,26.07h-.01s-2.22-2.25-2.22-2.25l-23.79-23.82c-1.62-1.58-3.77-2.47-6.05-2.47h-21.42c-2.26,0-4.42.89-6.05,2.47l-23.51,23.57c-1.61,1.58-2.5,3.75-2.5,6v21.44c0,2.25.89,4.41,2.5,6l78.69,78.69c.66.66,1.52,1.01,2.44,1.01h3.86c.92,0,1.79-.36,2.44-1.01l78.69-78.69c1.64-1.59,2.53-3.75,2.53-6v-21.44c0-2.25-.89-4.42-2.53-6ZM279.02,91.8l-14.67,14.67h-5.87l-18.04-18.04v-7.14l13.41-13.41h7.15l18.03,18.04v5.87ZM360.01,88.44l-56.86,56.86h-5.87l-14.7-14.7v-5.87l56.83-56.83h7.2l13.41,13.41v7.14Z"/>
      </g>
    </g>
  </g>
</svg>