<?xml version="1.0" encoding="UTF-8"?>
<svg xmlns="http://www.w3.org/2000/svg" version="1.1" viewBox="0 0 385.8 181.3">
  <defs>
    <style>
      .cls-1 {
        fill: #fff;
      }
    </style>
  </defs>
  <!-- Generator: Adobe Illustrator 28.6.0, SVG Export Plug-In . SVG Version: 1.2.0 Build 709)  -->
  <g>
    <g id="Layer_2">
      <g id="Layer_1-2">
        <g>
          <g>
            <path class="cls-1" d="M8.7,78.2c3.5,0,6.3-1.6,8.9-3.8.8,3.3,3.4,5.2,7.3,5.2h74.6c3.8,0,6.8-.7,9.5-2.4,1.6,1.8,3.9,2.8,6.6,2.8,3.8,0,6.5-2.1,8.3-4.2,1,2.7,3.1,3.8,6,3.8h0c9.9,0,14.7-6.9,27.3-6.9h3.7v-3.2h-2.8c-7.8,0-9.3-11.3-20.4-11.3s-3.1.3-3.7.7v3.6c.9-.4,1.9-.6,3.3-.6,6.7,0,9.5,4.9,13.2,8.2-8.3,1.4-14,5.9-20.7,5.9s-3.1-.9-3.9-3.2l-3.3-9.3c-1-2.9-2.5-3.8-5.4-3.8-5.8,0-10.9,3.8-10.9,10.4s.3,2.8.7,4.1c-2,1.2-4.5,1.8-7.7,1.8H25c-2.9,0-4.7-1.8-4.7-4.9v-18.4h-2.9v3.5l-8.1,3.1C4.4,61.2,0,63.8,0,69.8s3.9,8.4,8.6,8.4ZM116.1,63.3h3.6l3.3,9.6c-1.9,1.8-4.4,3.4-7.5,3.4s-6.6-3-6.6-6.3,3.9-6.7,7.2-6.7ZM9.9,62.7l7.5-3v11.4c-2.7,2-4.9,3.6-8.6,3.6s-6.2-1.6-6.2-4.8,3.7-5.7,7.4-7.2h0Z"/>
            <path class="cls-1" d="M43.9,98.6l-14.7,37.1h3.5l4.4-11.1h17.4l4.4,11.1h3.5l-14.7-37.1s-3.8,0-3.8,0ZM38.2,121.8l7.6-19.2,7.6,19.2s-15.2,0-15.2,0Z"/>
            <polygon class="cls-1" points="89.2 114.9 68.6 114.9 68.6 98.6 65.1 98.6 65.1 135.8 68.6 135.8 68.6 117.8 89.2 117.8 89.2 135.8 92.7 135.8 92.7 98.6 89.2 98.6 89.2 114.9"/>
            <path class="cls-1" d="M116.9,132.2l-12.1-33.6h-5.4v37.1h3.4v-18.3c0-4.8,0-9.4-.1-14.2v-1.9c0,0,.7,2.2.7,2.2,1.5,4.5,3.1,9,4.7,13.5l6.7,18.7h4.4l6.7-18.7c1.6-4.5,3.1-8.9,4.6-13.5l.7-1.8v1.5c-.2,4.8-.2,9.4-.2,14.2v18.3h3.4v-37.1h-5.3l-12.1,33.6h0Z"/>
            <g>
              <polygon class="cls-1" points="8.6 48.7 5.5 45.5 2.4 48.7 5.5 51.8 8.6 48.7"/>
              <polygon class="cls-1" points="15.4 48.7 12.3 45.5 9.2 48.7 12.3 51.8 15.4 48.7"/>
              <path class="cls-1" d="M167.4,78.2c0,6.9-2.9,7.8-7.9,7.8v3.6c7.6,0,10.8-2.9,10.8-11.8v-16.7h-2.9v17.2h0Z"/>
              <path class="cls-1" d="M27.7,108.6c0-6.2-4.2-9.9-15-9.9H0v37.1h3.5v-17.2h9.2c8,0,11.4,2.5,11.4,8v9.2h3.5v-9.2c0-4.8-1.9-7.8-6-9.4,4.2-1.6,6-4.6,6-8.7h0ZM12.7,115.9H3.5v-14.7h9.2c8.5,0,11.4,2.7,11.4,7.4s-2.9,7.3-11.4,7.3Z"/>
              <path class="cls-1" d="M151.6,98.6l-14.7,37.1h3.5l4.4-11.1h17.4l4.4,11.1h3.5l-14.7-37.1h-3.8ZM146,121.8l7.6-19.2,7.6,19.2h-15.2Z"/>
            </g>
          </g>
          <g>
            <path class="cls-1" d="M343,34.2c9.4,0,17.1-7.6,17.1-17.1S352.4,0,343,0s-17.2,7.6-17.2,17.1,7.7,17.1,17.2,17.1Z"/>
            <path class="cls-1" d="M257.4,34.2c9.4,0,17.1-7.7,17.1-17.1S266.8,0,257.4,0s-17.1,7.6-17.1,17.1,7.6,17.1,17.1,17.1Z"/>
            <path class="cls-1" d="M383.3,68.2l-23.5-23.6c-1.6-1.6-3.8-2.5-6-2.5h-21.5c-2.2,0-4.4.9-6,2.5l-26,26.1h0l-2.2-2.2-23.8-23.8c-1.6-1.6-3.8-2.5-6-2.5h-21.4c-2.3,0-4.4.9-6.1,2.5l-23.5,23.6c-1.6,1.6-2.5,3.8-2.5,6v21.4c0,2.2.9,4.4,2.5,6l78.7,78.7c.7.7,1.5,1,2.4,1h3.9c.9,0,1.8-.4,2.4-1l78.7-78.7c1.6-1.6,2.5-3.8,2.5-6v-21.4c0-2.2-.9-4.4-2.5-6h0ZM279,91.8l-14.7,14.7h-5.9l-18-18v-7.1l13.4-13.4h7.1l18,18v5.9h0ZM360,88.4l-56.9,56.9h-5.9l-14.7-14.7v-5.9l56.8-56.8h7.2l13.4,13.4v7.1h0Z"/>
          </g>
        </g>
      </g>
    </g>
  </g>
</svg>