<?xml version="1.0" encoding="UTF-8"?>
<svg id="Layer_2" xmlns="http://www.w3.org/2000/svg" xmlns:xlink="http://www.w3.org/1999/xlink" viewBox="0 0 1399.05 402.07">
  <defs>
    <style>
      .cls-1 {
        fill: none;
      }

      .cls-2 {
        fill: #135562;
      }

      .cls-3 {
        clip-path: url(#clippath);
      }
    </style>
    <clipPath id="clippath">
      <rect class="cls-1" width="1399.05" height="402.07"/>
    </clipPath>
  </defs>
  <g id="Layer_1-2" data-name="Layer_1">
    <g class="cls-3">
      <g>
        <g id="_x3C_Grid_Repeat_x3E_">
          <polygon class="cls-2" points="35.14 9 35.14 13.79 -3.04 51.96 -6.97 51.96 -16.84 42.09 -16.84 38.15 21.31 0 26.14 0 35.14 9"/>
        </g>
        <g id="_x3C_Grid_Repeat_x3E_-2" data-name="_x3C_Grid_Repeat_x3E_">
          <g>
            <polygon class="cls-2" points="71.03 39.85 71.03 35.91 61.18 26.06 57.24 26.06 45.13 38.17 45.13 42.96 54.13 51.96 58.93 51.96 71.03 39.85"/>
            <polygon class="cls-2" points="125.4 42.96 125.4 38.17 87.23 0 83.29 0 73.42 9.87 73.42 13.81 111.57 51.96 116.4 51.96 125.4 42.96"/>
          </g>
        </g>
        <g id="_x3C_Grid_Repeat_x3E_-3" data-name="_x3C_Grid_Repeat_x3E_">
          <g>
            <polygon class="cls-2" points="161.3 12.11 161.3 16.05 151.45 25.9 147.51 25.9 135.4 13.79 135.4 9 144.4 0 149.2 0 161.3 12.11"/>
            <polygon class="cls-2" points="215.67 9 215.67 13.79 177.5 51.96 173.56 51.96 163.69 42.09 163.69 38.15 201.84 0 206.67 0 215.67 9"/>
          </g>
        </g>
        <g id="_x3C_Grid_Repeat_x3E_-4" data-name="_x3C_Grid_Repeat_x3E_">
          <g>
            <polygon class="cls-2" points="251.57 39.85 251.57 35.91 241.72 26.06 237.78 26.06 225.67 38.17 225.67 42.96 234.67 51.96 239.47 51.96 251.57 39.85"/>
            <polygon class="cls-2" points="305.94 42.96 305.94 38.17 267.77 0 263.83 0 253.96 9.87 253.96 13.81 292.11 51.96 296.94 51.96 305.94 42.96"/>
          </g>
        </g>
        <g id="_x3C_Grid_Repeat_x3E_-5" data-name="_x3C_Grid_Repeat_x3E_">
          <g>
            <polygon class="cls-2" points="341.84 12.11 341.84 16.05 331.99 25.9 328.05 25.9 315.94 13.79 315.94 9 324.94 0 329.74 0 341.84 12.11"/>
            <polygon class="cls-2" points="396.21 9 396.21 13.79 358.04 51.96 354.1 51.96 344.23 42.09 344.23 38.15 382.38 0 387.21 0 396.21 9"/>
          </g>
        </g>
        <g id="_x3C_Grid_Repeat_x3E_-6" data-name="_x3C_Grid_Repeat_x3E_">
          <g>
            <polygon class="cls-2" points="432.11 39.85 432.11 35.91 422.26 26.06 418.32 26.06 406.21 38.17 406.21 42.96 415.21 51.96 420.01 51.96 432.11 39.85"/>
            <polygon class="cls-2" points="486.48 42.96 486.48 38.17 448.31 0 444.37 0 434.5 9.87 434.5 13.81 472.65 51.96 477.48 51.96 486.48 42.96"/>
          </g>
        </g>
        <g id="_x3C_Grid_Repeat_x3E_-7" data-name="_x3C_Grid_Repeat_x3E_">
          <g>
            <polygon class="cls-2" points="522.38 12.11 522.38 16.05 512.53 25.9 508.59 25.9 496.48 13.79 496.48 9 505.48 0 510.28 0 522.38 12.11"/>
            <polygon class="cls-2" points="576.75 9 576.75 13.79 538.58 51.96 534.64 51.96 524.77 42.09 524.77 38.15 562.92 0 567.75 0 576.75 9"/>
          </g>
        </g>
        <g id="_x3C_Grid_Repeat_x3E_-8" data-name="_x3C_Grid_Repeat_x3E_">
          <g>
            <polygon class="cls-2" points="612.65 39.85 612.65 35.91 602.8 26.06 598.86 26.06 586.75 38.17 586.75 42.96 595.75 51.96 600.55 51.96 612.65 39.85"/>
            <polygon class="cls-2" points="667.02 42.96 667.02 38.17 628.85 0 624.91 0 615.04 9.87 615.04 13.81 653.19 51.96 658.02 51.96 667.02 42.96"/>
          </g>
        </g>
        <g id="_x3C_Grid_Repeat_x3E_-9" data-name="_x3C_Grid_Repeat_x3E_">
          <g>
            <polygon class="cls-2" points="702.92 12.11 702.92 16.05 693.07 25.9 689.13 25.9 677.02 13.79 677.02 9 686.02 0 690.82 0 702.92 12.11"/>
            <polygon class="cls-2" points="757.29 9 757.29 13.79 719.12 51.96 715.18 51.96 705.31 42.09 705.31 38.15 743.46 0 748.29 0 757.29 9"/>
          </g>
        </g>
        <g id="_x3C_Grid_Repeat_x3E_-10" data-name="_x3C_Grid_Repeat_x3E_">
          <g>
            <polygon class="cls-2" points="793.19 39.85 793.19 35.91 783.34 26.06 779.4 26.06 767.29 38.17 767.29 42.96 776.29 51.96 781.09 51.96 793.19 39.85"/>
            <polygon class="cls-2" points="847.56 42.96 847.56 38.17 809.39 0 805.45 0 795.58 9.87 795.58 13.81 833.73 51.96 838.56 51.96 847.56 42.96"/>
          </g>
        </g>
        <g id="_x3C_Grid_Repeat_x3E_-11" data-name="_x3C_Grid_Repeat_x3E_">
          <g>
            <polygon class="cls-2" points="883.46 12.11 883.46 16.05 873.61 25.9 869.67 25.9 857.56 13.79 857.56 9 866.56 0 871.36 0 883.46 12.11"/>
            <polygon class="cls-2" points="937.83 9 937.83 13.79 899.66 51.96 895.72 51.96 885.85 42.09 885.85 38.15 924 0 928.83 0 937.83 9"/>
          </g>
        </g>
        <g id="_x3C_Grid_Repeat_x3E_-12" data-name="_x3C_Grid_Repeat_x3E_">
          <g>
            <polygon class="cls-2" points="973.73 39.85 973.73 35.91 963.88 26.06 959.94 26.06 947.83 38.17 947.83 42.96 956.83 51.96 961.63 51.96 973.73 39.85"/>
            <polygon class="cls-2" points="1028.1 42.96 1028.1 38.17 989.93 0 985.99 0 976.12 9.87 976.12 13.81 1014.27 51.96 1019.1 51.96 1028.1 42.96"/>
          </g>
        </g>
        <g id="_x3C_Grid_Repeat_x3E_-13" data-name="_x3C_Grid_Repeat_x3E_">
          <g>
            <polygon class="cls-2" points="1064 12.11 1064 16.05 1054.15 25.9 1050.21 25.9 1038.1 13.79 1038.1 9 1047.1 0 1051.9 0 1064 12.11"/>
            <polygon class="cls-2" points="1118.37 9 1118.37 13.79 1080.2 51.96 1076.26 51.96 1066.39 42.09 1066.39 38.15 1104.54 0 1109.37 0 1118.37 9"/>
          </g>
        </g>
        <g id="_x3C_Grid_Repeat_x3E_-14" data-name="_x3C_Grid_Repeat_x3E_">
          <g>
            <polygon class="cls-2" points="1154.27 39.85 1154.27 35.91 1144.42 26.06 1140.48 26.06 1128.37 38.17 1128.37 42.96 1137.37 51.96 1142.17 51.96 1154.27 39.85"/>
            <polygon class="cls-2" points="1208.64 42.96 1208.64 38.17 1170.47 0 1166.53 0 1156.66 9.87 1156.66 13.81 1194.81 51.96 1199.64 51.96 1208.64 42.96"/>
          </g>
        </g>
        <g id="_x3C_Grid_Repeat_x3E_-15" data-name="_x3C_Grid_Repeat_x3E_">
          <g>
            <polygon class="cls-2" points="1244.54 12.11 1244.54 16.05 1234.69 25.9 1230.75 25.9 1218.64 13.79 1218.64 9 1227.64 0 1232.44 0 1244.54 12.11"/>
            <polygon class="cls-2" points="1298.91 9 1298.91 13.79 1260.74 51.96 1256.8 51.96 1246.93 42.09 1246.93 38.15 1285.08 0 1289.91 0 1298.91 9"/>
          </g>
        </g>
        <g id="_x3C_Grid_Repeat_x3E_-16" data-name="_x3C_Grid_Repeat_x3E_">
          <g>
            <polygon class="cls-2" points="1334.81 39.85 1334.81 35.91 1324.96 26.06 1321.02 26.06 1308.91 38.17 1308.91 42.96 1317.91 51.96 1322.71 51.96 1334.81 39.85"/>
            <polygon class="cls-2" points="1389.18 42.96 1389.18 38.17 1351.01 0 1347.07 0 1337.2 9.87 1337.2 13.81 1375.35 51.96 1380.18 51.96 1389.18 42.96"/>
          </g>
        </g>
        <g id="_x3C_Grid_Repeat_x3E_-17" data-name="_x3C_Grid_Repeat_x3E_">
          <g>
            <polygon class="cls-2" points="25.9 74.07 25.9 78.01 16.05 87.86 12.11 87.86 0 75.75 0 70.96 9 61.96 13.8 61.96 25.9 74.07"/>
            <polygon class="cls-2" points="80.27 70.96 80.27 75.75 42.1 113.92 38.16 113.92 28.29 104.05 28.29 100.11 66.44 61.96 71.27 61.96 80.27 70.96"/>
          </g>
        </g>
        <g id="_x3C_Grid_Repeat_x3E_-18" data-name="_x3C_Grid_Repeat_x3E_">
          <g>
            <polygon class="cls-2" points="116.17 101.81 116.17 97.87 106.32 88.02 102.38 88.02 90.27 100.13 90.27 104.92 99.27 113.92 104.07 113.92 116.17 101.81"/>
            <polygon class="cls-2" points="170.54 104.92 170.54 100.13 132.37 61.96 128.43 61.96 118.56 71.83 118.56 75.77 156.71 113.92 161.54 113.92 170.54 104.92"/>
          </g>
        </g>
        <g id="_x3C_Grid_Repeat_x3E_-19" data-name="_x3C_Grid_Repeat_x3E_">
          <g>
            <polygon class="cls-2" points="206.44 74.07 206.44 78.01 196.59 87.86 192.65 87.86 180.54 75.75 180.54 70.96 189.54 61.96 194.34 61.96 206.44 74.07"/>
            <polygon class="cls-2" points="260.81 70.96 260.81 75.75 222.64 113.92 218.7 113.92 208.83 104.05 208.83 100.11 246.98 61.96 251.81 61.96 260.81 70.96"/>
          </g>
        </g>
        <g id="_x3C_Grid_Repeat_x3E_-20" data-name="_x3C_Grid_Repeat_x3E_">
          <g>
            <polygon class="cls-2" points="296.71 101.81 296.71 97.87 286.86 88.02 282.92 88.02 270.81 100.13 270.81 104.92 279.81 113.92 284.61 113.92 296.71 101.81"/>
            <polygon class="cls-2" points="351.08 104.92 351.08 100.13 312.91 61.96 308.97 61.96 299.1 71.83 299.1 75.77 337.25 113.92 342.08 113.92 351.08 104.92"/>
          </g>
        </g>
        <g id="_x3C_Grid_Repeat_x3E_-21" data-name="_x3C_Grid_Repeat_x3E_">
          <g>
            <polygon class="cls-2" points="386.98 74.07 386.98 78.01 377.13 87.86 373.19 87.86 361.08 75.75 361.08 70.96 370.08 61.96 374.88 61.96 386.98 74.07"/>
            <polygon class="cls-2" points="441.35 70.96 441.35 75.75 403.18 113.92 399.24 113.92 389.37 104.05 389.37 100.11 427.52 61.96 432.35 61.96 441.35 70.96"/>
          </g>
        </g>
        <g id="_x3C_Grid_Repeat_x3E_-22" data-name="_x3C_Grid_Repeat_x3E_">
          <g>
            <polygon class="cls-2" points="477.25 101.81 477.25 97.87 467.4 88.02 463.46 88.02 451.35 100.13 451.35 104.92 460.35 113.92 465.15 113.92 477.25 101.81"/>
            <polygon class="cls-2" points="531.62 104.92 531.62 100.13 493.45 61.96 489.51 61.96 479.64 71.83 479.64 75.77 517.79 113.92 522.62 113.92 531.62 104.92"/>
          </g>
        </g>
        <g id="_x3C_Grid_Repeat_x3E_-23" data-name="_x3C_Grid_Repeat_x3E_">
          <g>
            <polygon class="cls-2" points="567.52 74.07 567.52 78.01 557.67 87.86 553.73 87.86 541.62 75.75 541.62 70.96 550.62 61.96 555.42 61.96 567.52 74.07"/>
            <polygon class="cls-2" points="621.89 70.96 621.89 75.75 583.72 113.92 579.78 113.92 569.91 104.05 569.91 100.11 608.06 61.96 612.89 61.96 621.89 70.96"/>
          </g>
        </g>
        <g id="_x3C_Grid_Repeat_x3E_-24" data-name="_x3C_Grid_Repeat_x3E_">
          <g>
            <polygon class="cls-2" points="657.79 101.81 657.79 97.87 647.94 88.02 644 88.02 631.89 100.13 631.89 104.92 640.89 113.92 645.69 113.92 657.79 101.81"/>
            <polygon class="cls-2" points="712.16 104.92 712.16 100.13 673.99 61.96 670.05 61.96 660.18 71.83 660.18 75.77 698.33 113.92 703.16 113.92 712.16 104.92"/>
          </g>
        </g>
        <g id="_x3C_Grid_Repeat_x3E_-25" data-name="_x3C_Grid_Repeat_x3E_">
          <g>
            <polygon class="cls-2" points="748.06 74.07 748.06 78.01 738.21 87.86 734.27 87.86 722.16 75.75 722.16 70.96 731.16 61.96 735.96 61.96 748.06 74.07"/>
            <polygon class="cls-2" points="802.43 70.96 802.43 75.75 764.26 113.92 760.32 113.92 750.45 104.05 750.45 100.11 788.6 61.96 793.43 61.96 802.43 70.96"/>
          </g>
        </g>
        <g id="_x3C_Grid_Repeat_x3E_-26" data-name="_x3C_Grid_Repeat_x3E_">
          <g>
            <polygon class="cls-2" points="838.33 101.81 838.33 97.87 828.48 88.02 824.54 88.02 812.43 100.13 812.43 104.92 821.43 113.92 826.23 113.92 838.33 101.81"/>
            <polygon class="cls-2" points="892.7 104.92 892.7 100.13 854.53 61.96 850.59 61.96 840.72 71.83 840.72 75.77 878.87 113.92 883.7 113.92 892.7 104.92"/>
          </g>
        </g>
        <g id="_x3C_Grid_Repeat_x3E_-27" data-name="_x3C_Grid_Repeat_x3E_">
          <g>
            <polygon class="cls-2" points="928.6 74.07 928.6 78.01 918.75 87.86 914.81 87.86 902.7 75.75 902.7 70.96 911.7 61.96 916.5 61.96 928.6 74.07"/>
            <polygon class="cls-2" points="982.97 70.96 982.97 75.75 944.8 113.92 940.86 113.92 930.99 104.05 930.99 100.11 969.14 61.96 973.97 61.96 982.97 70.96"/>
          </g>
        </g>
        <g id="_x3C_Grid_Repeat_x3E_-28" data-name="_x3C_Grid_Repeat_x3E_">
          <g>
            <polygon class="cls-2" points="1018.87 101.81 1018.87 97.87 1009.02 88.02 1005.08 88.02 992.97 100.13 992.97 104.92 1001.97 113.92 1006.77 113.92 1018.87 101.81"/>
            <polygon class="cls-2" points="1073.24 104.92 1073.24 100.13 1035.07 61.96 1031.13 61.96 1021.26 71.83 1021.26 75.77 1059.41 113.92 1064.24 113.92 1073.24 104.92"/>
          </g>
        </g>
        <g id="_x3C_Grid_Repeat_x3E_-29" data-name="_x3C_Grid_Repeat_x3E_">
          <g>
            <polygon class="cls-2" points="1109.14 74.07 1109.14 78.01 1099.29 87.86 1095.35 87.86 1083.24 75.75 1083.24 70.96 1092.24 61.96 1097.04 61.96 1109.14 74.07"/>
            <polygon class="cls-2" points="1163.51 70.96 1163.51 75.75 1125.34 113.92 1121.4 113.92 1111.53 104.05 1111.53 100.11 1149.68 61.96 1154.51 61.96 1163.51 70.96"/>
          </g>
        </g>
        <g id="_x3C_Grid_Repeat_x3E_-30" data-name="_x3C_Grid_Repeat_x3E_">
          <g>
            <polygon class="cls-2" points="1199.41 101.81 1199.41 97.87 1189.56 88.02 1185.62 88.02 1173.51 100.13 1173.51 104.92 1182.51 113.92 1187.31 113.92 1199.41 101.81"/>
            <polygon class="cls-2" points="1253.78 104.92 1253.78 100.13 1215.61 61.96 1211.67 61.96 1201.8 71.83 1201.8 75.77 1239.95 113.92 1244.78 113.92 1253.78 104.92"/>
          </g>
        </g>
        <g id="_x3C_Grid_Repeat_x3E_-31" data-name="_x3C_Grid_Repeat_x3E_">
          <g>
            <polygon class="cls-2" points="1289.68 74.07 1289.68 78.01 1279.83 87.86 1275.89 87.86 1263.78 75.75 1263.78 70.96 1272.78 61.96 1277.58 61.96 1289.68 74.07"/>
            <polygon class="cls-2" points="1344.05 70.96 1344.05 75.75 1305.88 113.92 1301.94 113.92 1292.07 104.05 1292.07 100.11 1330.22 61.96 1335.05 61.96 1344.05 70.96"/>
          </g>
        </g>
        <g id="_x3C_Grid_Repeat_x3E_-32" data-name="_x3C_Grid_Repeat_x3E_">
          <g>
            <polygon class="cls-2" points="1379.95 101.81 1379.95 97.87 1370.1 88.02 1366.16 88.02 1354.05 100.13 1354.05 104.92 1363.05 113.92 1367.85 113.92 1379.95 101.81"/>
            <polygon class="cls-2" points="1434.32 104.92 1434.32 100.13 1396.15 61.96 1392.21 61.96 1382.34 71.83 1382.34 75.77 1420.49 113.92 1425.32 113.92 1434.32 104.92"/>
          </g>
        </g>
        <g id="_x3C_Grid_Repeat_x3E_-33" data-name="_x3C_Grid_Repeat_x3E_">
          <polygon class="cls-2" points="35.14 132.92 35.14 137.71 -3.04 175.88 -6.97 175.88 -16.84 166.01 -16.84 162.07 21.31 123.92 26.14 123.92 35.14 132.92"/>
        </g>
        <g id="_x3C_Grid_Repeat_x3E_-34" data-name="_x3C_Grid_Repeat_x3E_">
          <g>
            <polygon class="cls-2" points="71.03 163.77 71.03 159.83 61.18 149.98 57.24 149.98 45.13 162.09 45.13 166.88 54.13 175.88 58.93 175.88 71.03 163.77"/>
            <polygon class="cls-2" points="125.4 166.88 125.4 162.09 87.23 123.92 83.29 123.92 73.42 133.79 73.42 137.73 111.57 175.88 116.4 175.88 125.4 166.88"/>
          </g>
        </g>
        <g id="_x3C_Grid_Repeat_x3E_-35" data-name="_x3C_Grid_Repeat_x3E_">
          <g>
            <polygon class="cls-2" points="161.3 136.03 161.3 139.97 151.45 149.82 147.51 149.82 135.4 137.71 135.4 132.92 144.4 123.92 149.2 123.92 161.3 136.03"/>
            <polygon class="cls-2" points="215.67 132.92 215.67 137.71 177.5 175.88 173.56 175.88 163.69 166.01 163.69 162.07 201.84 123.92 206.67 123.92 215.67 132.92"/>
          </g>
        </g>
        <g id="_x3C_Grid_Repeat_x3E_-36" data-name="_x3C_Grid_Repeat_x3E_">
          <g>
            <polygon class="cls-2" points="251.57 163.77 251.57 159.83 241.72 149.98 237.78 149.98 225.67 162.09 225.67 166.88 234.67 175.88 239.47 175.88 251.57 163.77"/>
            <polygon class="cls-2" points="305.94 166.88 305.94 162.09 267.77 123.92 263.83 123.92 253.96 133.79 253.96 137.73 292.11 175.88 296.94 175.88 305.94 166.88"/>
          </g>
        </g>
        <g id="_x3C_Grid_Repeat_x3E_-37" data-name="_x3C_Grid_Repeat_x3E_">
          <g>
            <polygon class="cls-2" points="341.84 136.03 341.84 139.97 331.99 149.82 328.05 149.82 315.94 137.71 315.94 132.92 324.94 123.92 329.74 123.92 341.84 136.03"/>
            <polygon class="cls-2" points="396.21 132.92 396.21 137.71 358.04 175.88 354.1 175.88 344.23 166.01 344.23 162.07 382.38 123.92 387.21 123.92 396.21 132.92"/>
          </g>
        </g>
        <g id="_x3C_Grid_Repeat_x3E_-38" data-name="_x3C_Grid_Repeat_x3E_">
          <g>
            <polygon class="cls-2" points="432.11 163.77 432.11 159.83 422.26 149.98 418.32 149.98 406.21 162.09 406.21 166.88 415.21 175.88 420.01 175.88 432.11 163.77"/>
            <polygon class="cls-2" points="486.48 166.88 486.48 162.09 448.31 123.92 444.37 123.92 434.5 133.79 434.5 137.73 472.65 175.88 477.48 175.88 486.48 166.88"/>
          </g>
        </g>
        <g id="_x3C_Grid_Repeat_x3E_-39" data-name="_x3C_Grid_Repeat_x3E_">
          <g>
            <polygon class="cls-2" points="522.38 136.03 522.38 139.97 512.53 149.82 508.59 149.82 496.48 137.71 496.48 132.92 505.48 123.92 510.28 123.92 522.38 136.03"/>
            <polygon class="cls-2" points="576.75 132.92 576.75 137.71 538.58 175.88 534.64 175.88 524.77 166.01 524.77 162.07 562.92 123.92 567.75 123.92 576.75 132.92"/>
          </g>
        </g>
        <g id="_x3C_Grid_Repeat_x3E_-40" data-name="_x3C_Grid_Repeat_x3E_">
          <g>
            <polygon class="cls-2" points="612.65 163.77 612.65 159.83 602.8 149.98 598.86 149.98 586.75 162.09 586.75 166.88 595.75 175.88 600.55 175.88 612.65 163.77"/>
            <polygon class="cls-2" points="667.02 166.88 667.02 162.09 628.85 123.92 624.91 123.92 615.04 133.79 615.04 137.73 653.19 175.88 658.02 175.88 667.02 166.88"/>
          </g>
        </g>
        <g id="_x3C_Grid_Repeat_x3E_-41" data-name="_x3C_Grid_Repeat_x3E_">
          <g>
            <polygon class="cls-2" points="702.92 136.03 702.92 139.97 693.07 149.82 689.13 149.82 677.02 137.71 677.02 132.92 686.02 123.92 690.82 123.92 702.92 136.03"/>
            <polygon class="cls-2" points="757.29 132.92 757.29 137.71 719.12 175.88 715.18 175.88 705.31 166.01 705.31 162.07 743.46 123.92 748.29 123.92 757.29 132.92"/>
          </g>
        </g>
        <g id="_x3C_Grid_Repeat_x3E_-42" data-name="_x3C_Grid_Repeat_x3E_">
          <g>
            <polygon class="cls-2" points="793.19 163.77 793.19 159.83 783.34 149.98 779.4 149.98 767.29 162.09 767.29 166.88 776.29 175.88 781.09 175.88 793.19 163.77"/>
            <polygon class="cls-2" points="847.56 166.88 847.56 162.09 809.39 123.92 805.45 123.92 795.58 133.79 795.58 137.73 833.73 175.88 838.56 175.88 847.56 166.88"/>
          </g>
        </g>
        <g id="_x3C_Grid_Repeat_x3E_-43" data-name="_x3C_Grid_Repeat_x3E_">
          <g>
            <polygon class="cls-2" points="883.46 136.03 883.46 139.97 873.61 149.82 869.67 149.82 857.56 137.71 857.56 132.92 866.56 123.92 871.36 123.92 883.46 136.03"/>
            <polygon class="cls-2" points="937.83 132.92 937.83 137.71 899.66 175.88 895.72 175.88 885.85 166.01 885.85 162.07 924 123.92 928.83 123.92 937.83 132.92"/>
          </g>
        </g>
        <g id="_x3C_Grid_Repeat_x3E_-44" data-name="_x3C_Grid_Repeat_x3E_">
          <g>
            <polygon class="cls-2" points="973.73 163.77 973.73 159.83 963.88 149.98 959.94 149.98 947.83 162.09 947.83 166.88 956.83 175.88 961.63 175.88 973.73 163.77"/>
            <polygon class="cls-2" points="1028.1 166.88 1028.1 162.09 989.93 123.92 985.99 123.92 976.12 133.79 976.12 137.73 1014.27 175.88 1019.1 175.88 1028.1 166.88"/>
          </g>
        </g>
        <g id="_x3C_Grid_Repeat_x3E_-45" data-name="_x3C_Grid_Repeat_x3E_">
          <g>
            <polygon class="cls-2" points="1064 136.03 1064 139.97 1054.15 149.82 1050.21 149.82 1038.1 137.71 1038.1 132.92 1047.1 123.92 1051.9 123.92 1064 136.03"/>
            <polygon class="cls-2" points="1118.37 132.92 1118.37 137.71 1080.2 175.88 1076.26 175.88 1066.39 166.01 1066.39 162.07 1104.54 123.92 1109.37 123.92 1118.37 132.92"/>
          </g>
        </g>
        <g id="_x3C_Grid_Repeat_x3E_-46" data-name="_x3C_Grid_Repeat_x3E_">
          <g>
            <polygon class="cls-2" points="1154.27 163.77 1154.27 159.83 1144.42 149.98 1140.48 149.98 1128.37 162.09 1128.37 166.88 1137.37 175.88 1142.17 175.88 1154.27 163.77"/>
            <polygon class="cls-2" points="1208.64 166.88 1208.64 162.09 1170.47 123.92 1166.53 123.92 1156.66 133.79 1156.66 137.73 1194.81 175.88 1199.64 175.88 1208.64 166.88"/>
          </g>
        </g>
        <g id="_x3C_Grid_Repeat_x3E_-47" data-name="_x3C_Grid_Repeat_x3E_">
          <g>
            <polygon class="cls-2" points="1244.54 136.03 1244.54 139.97 1234.69 149.82 1230.75 149.82 1218.64 137.71 1218.64 132.92 1227.64 123.92 1232.44 123.92 1244.54 136.03"/>
            <polygon class="cls-2" points="1298.91 132.92 1298.91 137.71 1260.74 175.88 1256.8 175.88 1246.93 166.01 1246.93 162.07 1285.08 123.92 1289.91 123.92 1298.91 132.92"/>
          </g>
        </g>
        <g id="_x3C_Grid_Repeat_x3E_-48" data-name="_x3C_Grid_Repeat_x3E_">
          <g>
            <polygon class="cls-2" points="1334.81 163.77 1334.81 159.83 1324.96 149.98 1321.02 149.98 1308.91 162.09 1308.91 166.88 1317.91 175.88 1322.71 175.88 1334.81 163.77"/>
            <polygon class="cls-2" points="1389.18 166.88 1389.18 162.09 1351.01 123.92 1347.07 123.92 1337.2 133.79 1337.2 137.73 1375.35 175.88 1380.18 175.88 1389.18 166.88"/>
          </g>
        </g>
        <g id="_x3C_Grid_Repeat_x3E_-49" data-name="_x3C_Grid_Repeat_x3E_">
          <g>
            <polygon class="cls-2" points="25.9 197.99 25.9 201.93 16.05 211.78 12.11 211.78 0 199.67 0 194.88 9 185.88 13.8 185.88 25.9 197.99"/>
            <polygon class="cls-2" points="80.27 194.88 80.27 199.67 42.1 237.84 38.16 237.84 28.29 227.97 28.29 224.03 66.44 185.88 71.27 185.88 80.27 194.88"/>
          </g>
        </g>
        <g id="_x3C_Grid_Repeat_x3E_-50" data-name="_x3C_Grid_Repeat_x3E_">
          <g>
            <polygon class="cls-2" points="116.17 225.73 116.17 221.79 106.32 211.94 102.38 211.94 90.27 224.05 90.27 228.84 99.27 237.84 104.07 237.84 116.17 225.73"/>
            <polygon class="cls-2" points="170.54 228.84 170.54 224.05 132.37 185.88 128.43 185.88 118.56 195.75 118.56 199.69 156.71 237.84 161.54 237.84 170.54 228.84"/>
          </g>
        </g>
        <g id="_x3C_Grid_Repeat_x3E_-51" data-name="_x3C_Grid_Repeat_x3E_">
          <g>
            <polygon class="cls-2" points="206.44 197.99 206.44 201.93 196.59 211.78 192.65 211.78 180.54 199.67 180.54 194.88 189.54 185.88 194.34 185.88 206.44 197.99"/>
            <polygon class="cls-2" points="260.81 194.88 260.81 199.67 222.64 237.84 218.7 237.84 208.83 227.97 208.83 224.03 246.98 185.88 251.81 185.88 260.81 194.88"/>
          </g>
        </g>
        <g id="_x3C_Grid_Repeat_x3E_-52" data-name="_x3C_Grid_Repeat_x3E_">
          <g>
            <polygon class="cls-2" points="296.71 225.73 296.71 221.79 286.86 211.94 282.92 211.94 270.81 224.05 270.81 228.84 279.81 237.84 284.61 237.84 296.71 225.73"/>
            <polygon class="cls-2" points="351.08 228.84 351.08 224.05 312.91 185.88 308.97 185.88 299.1 195.75 299.1 199.69 337.25 237.84 342.08 237.84 351.08 228.84"/>
          </g>
        </g>
        <g id="_x3C_Grid_Repeat_x3E_-53" data-name="_x3C_Grid_Repeat_x3E_">
          <g>
            <polygon class="cls-2" points="386.98 197.99 386.98 201.93 377.13 211.78 373.19 211.78 361.08 199.67 361.08 194.88 370.08 185.88 374.88 185.88 386.98 197.99"/>
            <polygon class="cls-2" points="441.35 194.88 441.35 199.67 403.18 237.84 399.24 237.84 389.37 227.97 389.37 224.03 427.52 185.88 432.35 185.88 441.35 194.88"/>
          </g>
        </g>
        <g id="_x3C_Grid_Repeat_x3E_-54" data-name="_x3C_Grid_Repeat_x3E_">
          <g>
            <polygon class="cls-2" points="477.25 225.73 477.25 221.79 467.4 211.94 463.46 211.94 451.35 224.05 451.35 228.84 460.35 237.84 465.15 237.84 477.25 225.73"/>
            <polygon class="cls-2" points="531.62 228.84 531.62 224.05 493.45 185.88 489.51 185.88 479.64 195.75 479.64 199.69 517.79 237.84 522.62 237.84 531.62 228.84"/>
          </g>
        </g>
        <g id="_x3C_Grid_Repeat_x3E_-55" data-name="_x3C_Grid_Repeat_x3E_">
          <g>
            <polygon class="cls-2" points="567.52 197.99 567.52 201.93 557.67 211.78 553.73 211.78 541.62 199.67 541.62 194.88 550.62 185.88 555.42 185.88 567.52 197.99"/>
            <polygon class="cls-2" points="621.89 194.88 621.89 199.67 583.72 237.84 579.78 237.84 569.91 227.97 569.91 224.03 608.06 185.88 612.89 185.88 621.89 194.88"/>
          </g>
        </g>
        <g id="_x3C_Grid_Repeat_x3E_-56" data-name="_x3C_Grid_Repeat_x3E_">
          <g>
            <polygon class="cls-2" points="657.79 225.73 657.79 221.79 647.94 211.94 644 211.94 631.89 224.05 631.89 228.84 640.89 237.84 645.69 237.84 657.79 225.73"/>
            <polygon class="cls-2" points="712.16 228.84 712.16 224.05 673.99 185.88 670.05 185.88 660.18 195.75 660.18 199.69 698.33 237.84 703.16 237.84 712.16 228.84"/>
          </g>
        </g>
        <g id="_x3C_Grid_Repeat_x3E_-57" data-name="_x3C_Grid_Repeat_x3E_">
          <g>
            <polygon class="cls-2" points="748.06 197.99 748.06 201.93 738.21 211.78 734.27 211.78 722.16 199.67 722.16 194.88 731.16 185.88 735.96 185.88 748.06 197.99"/>
            <polygon class="cls-2" points="802.43 194.88 802.43 199.67 764.26 237.84 760.32 237.84 750.45 227.97 750.45 224.03 788.6 185.88 793.43 185.88 802.43 194.88"/>
          </g>
        </g>
        <g id="_x3C_Grid_Repeat_x3E_-58" data-name="_x3C_Grid_Repeat_x3E_">
          <g>
            <polygon class="cls-2" points="838.33 225.73 838.33 221.79 828.48 211.94 824.54 211.94 812.43 224.05 812.43 228.84 821.43 237.84 826.23 237.84 838.33 225.73"/>
            <polygon class="cls-2" points="892.7 228.84 892.7 224.05 854.53 185.88 850.59 185.88 840.72 195.75 840.72 199.69 878.87 237.84 883.7 237.84 892.7 228.84"/>
          </g>
        </g>
        <g id="_x3C_Grid_Repeat_x3E_-59" data-name="_x3C_Grid_Repeat_x3E_">
          <g>
            <polygon class="cls-2" points="928.6 197.99 928.6 201.93 918.75 211.78 914.81 211.78 902.7 199.67 902.7 194.88 911.7 185.88 916.5 185.88 928.6 197.99"/>
            <polygon class="cls-2" points="982.97 194.88 982.97 199.67 944.8 237.84 940.86 237.84 930.99 227.97 930.99 224.03 969.14 185.88 973.97 185.88 982.97 194.88"/>
          </g>
        </g>
        <g id="_x3C_Grid_Repeat_x3E_-60" data-name="_x3C_Grid_Repeat_x3E_">
          <g>
            <polygon class="cls-2" points="1018.87 225.73 1018.87 221.79 1009.02 211.94 1005.08 211.94 992.97 224.05 992.97 228.84 1001.97 237.84 1006.77 237.84 1018.87 225.73"/>
            <polygon class="cls-2" points="1073.24 228.84 1073.24 224.05 1035.07 185.88 1031.13 185.88 1021.26 195.75 1021.26 199.69 1059.41 237.84 1064.24 237.84 1073.24 228.84"/>
          </g>
        </g>
        <g id="_x3C_Grid_Repeat_x3E_-61" data-name="_x3C_Grid_Repeat_x3E_">
          <g>
            <polygon class="cls-2" points="1109.14 197.99 1109.14 201.93 1099.29 211.78 1095.35 211.78 1083.24 199.67 1083.24 194.88 1092.24 185.88 1097.04 185.88 1109.14 197.99"/>
            <polygon class="cls-2" points="1163.51 194.88 1163.51 199.67 1125.34 237.84 1121.4 237.84 1111.53 227.97 1111.53 224.03 1149.68 185.88 1154.51 185.88 1163.51 194.88"/>
          </g>
        </g>
        <g id="_x3C_Grid_Repeat_x3E_-62" data-name="_x3C_Grid_Repeat_x3E_">
          <g>
            <polygon class="cls-2" points="1199.41 225.73 1199.41 221.79 1189.56 211.94 1185.62 211.94 1173.51 224.05 1173.51 228.84 1182.51 237.84 1187.31 237.84 1199.41 225.73"/>
            <polygon class="cls-2" points="1253.78 228.84 1253.78 224.05 1215.61 185.88 1211.67 185.88 1201.8 195.75 1201.8 199.69 1239.95 237.84 1244.78 237.84 1253.78 228.84"/>
          </g>
        </g>
        <g id="_x3C_Grid_Repeat_x3E_-63" data-name="_x3C_Grid_Repeat_x3E_">
          <g>
            <polygon class="cls-2" points="1289.68 197.99 1289.68 201.93 1279.83 211.78 1275.89 211.78 1263.78 199.67 1263.78 194.88 1272.78 185.88 1277.58 185.88 1289.68 197.99"/>
            <polygon class="cls-2" points="1344.05 194.88 1344.05 199.67 1305.88 237.84 1301.94 237.84 1292.07 227.97 1292.07 224.03 1330.22 185.88 1335.05 185.88 1344.05 194.88"/>
          </g>
        </g>
        <g id="_x3C_Grid_Repeat_x3E_-64" data-name="_x3C_Grid_Repeat_x3E_">
          <g>
            <polygon class="cls-2" points="1379.95 225.73 1379.95 221.79 1370.1 211.94 1366.16 211.94 1354.05 224.05 1354.05 228.84 1363.05 237.84 1367.85 237.84 1379.95 225.73"/>
            <polygon class="cls-2" points="1434.32 228.84 1434.32 224.05 1396.15 185.88 1392.21 185.88 1382.34 195.75 1382.34 199.69 1420.49 237.84 1425.32 237.84 1434.32 228.84"/>
          </g>
        </g>
        <g id="_x3C_Grid_Repeat_x3E_-65" data-name="_x3C_Grid_Repeat_x3E_">
          <polygon class="cls-2" points="35.14 256.84 35.14 261.63 -3.04 299.8 -6.97 299.8 -16.84 289.93 -16.84 285.99 21.31 247.84 26.14 247.84 35.14 256.84"/>
        </g>
        <g id="_x3C_Grid_Repeat_x3E_-66" data-name="_x3C_Grid_Repeat_x3E_">
          <g>
            <polygon class="cls-2" points="71.03 287.69 71.03 283.75 61.18 273.9 57.24 273.9 45.13 286.01 45.13 290.8 54.13 299.8 58.93 299.8 71.03 287.69"/>
            <polygon class="cls-2" points="125.4 290.8 125.4 286.01 87.23 247.84 83.29 247.84 73.42 257.71 73.42 261.65 111.57 299.8 116.4 299.8 125.4 290.8"/>
          </g>
        </g>
        <g id="_x3C_Grid_Repeat_x3E_-67" data-name="_x3C_Grid_Repeat_x3E_">
          <g>
            <polygon class="cls-2" points="161.3 259.95 161.3 263.89 151.45 273.74 147.51 273.74 135.4 261.63 135.4 256.84 144.4 247.84 149.2 247.84 161.3 259.95"/>
            <polygon class="cls-2" points="215.67 256.84 215.67 261.63 177.5 299.8 173.56 299.8 163.69 289.93 163.69 285.99 201.84 247.84 206.67 247.84 215.67 256.84"/>
          </g>
        </g>
        <g id="_x3C_Grid_Repeat_x3E_-68" data-name="_x3C_Grid_Repeat_x3E_">
          <g>
            <polygon class="cls-2" points="251.57 287.69 251.57 283.75 241.72 273.9 237.78 273.9 225.67 286.01 225.67 290.8 234.67 299.8 239.47 299.8 251.57 287.69"/>
            <polygon class="cls-2" points="305.94 290.8 305.94 286.01 267.77 247.84 263.83 247.84 253.96 257.71 253.96 261.65 292.11 299.8 296.94 299.8 305.94 290.8"/>
          </g>
        </g>
        <g id="_x3C_Grid_Repeat_x3E_-69" data-name="_x3C_Grid_Repeat_x3E_">
          <g>
            <polygon class="cls-2" points="341.84 259.95 341.84 263.89 331.99 273.74 328.05 273.74 315.94 261.63 315.94 256.84 324.94 247.84 329.74 247.84 341.84 259.95"/>
            <polygon class="cls-2" points="396.21 256.84 396.21 261.63 358.04 299.8 354.1 299.8 344.23 289.93 344.23 285.99 382.38 247.84 387.21 247.84 396.21 256.84"/>
          </g>
        </g>
        <g id="_x3C_Grid_Repeat_x3E_-70" data-name="_x3C_Grid_Repeat_x3E_">
          <g>
            <polygon class="cls-2" points="432.11 287.69 432.11 283.75 422.26 273.9 418.32 273.9 406.21 286.01 406.21 290.8 415.21 299.8 420.01 299.8 432.11 287.69"/>
            <polygon class="cls-2" points="486.48 290.8 486.48 286.01 448.31 247.84 444.37 247.84 434.5 257.71 434.5 261.65 472.65 299.8 477.48 299.8 486.48 290.8"/>
          </g>
        </g>
        <g id="_x3C_Grid_Repeat_x3E_-71" data-name="_x3C_Grid_Repeat_x3E_">
          <g>
            <polygon class="cls-2" points="522.38 259.95 522.38 263.89 512.53 273.74 508.59 273.74 496.48 261.63 496.48 256.84 505.48 247.84 510.28 247.84 522.38 259.95"/>
            <polygon class="cls-2" points="576.75 256.84 576.75 261.63 538.58 299.8 534.64 299.8 524.77 289.93 524.77 285.99 562.92 247.84 567.75 247.84 576.75 256.84"/>
          </g>
        </g>
        <g id="_x3C_Grid_Repeat_x3E_-72" data-name="_x3C_Grid_Repeat_x3E_">
          <g>
            <polygon class="cls-2" points="612.65 287.69 612.65 283.75 602.8 273.9 598.86 273.9 586.75 286.01 586.75 290.8 595.75 299.8 600.55 299.8 612.65 287.69"/>
            <polygon class="cls-2" points="667.02 290.8 667.02 286.01 628.85 247.84 624.91 247.84 615.04 257.71 615.04 261.65 653.19 299.8 658.02 299.8 667.02 290.8"/>
          </g>
        </g>
        <g id="_x3C_Grid_Repeat_x3E_-73" data-name="_x3C_Grid_Repeat_x3E_">
          <g>
            <polygon class="cls-2" points="702.92 259.95 702.92 263.89 693.07 273.74 689.13 273.74 677.02 261.63 677.02 256.84 686.02 247.84 690.82 247.84 702.92 259.95"/>
            <polygon class="cls-2" points="757.29 256.84 757.29 261.63 719.12 299.8 715.18 299.8 705.31 289.93 705.31 285.99 743.46 247.84 748.29 247.84 757.29 256.84"/>
          </g>
        </g>
        <g id="_x3C_Grid_Repeat_x3E_-74" data-name="_x3C_Grid_Repeat_x3E_">
          <g>
            <polygon class="cls-2" points="793.19 287.69 793.19 283.75 783.34 273.9 779.4 273.9 767.29 286.01 767.29 290.8 776.29 299.8 781.09 299.8 793.19 287.69"/>
            <polygon class="cls-2" points="847.56 290.8 847.56 286.01 809.39 247.84 805.45 247.84 795.58 257.71 795.58 261.65 833.73 299.8 838.56 299.8 847.56 290.8"/>
          </g>
        </g>
        <g id="_x3C_Grid_Repeat_x3E_-75" data-name="_x3C_Grid_Repeat_x3E_">
          <g>
            <polygon class="cls-2" points="883.46 259.95 883.46 263.89 873.61 273.74 869.67 273.74 857.56 261.63 857.56 256.84 866.56 247.84 871.36 247.84 883.46 259.95"/>
            <polygon class="cls-2" points="937.83 256.84 937.83 261.63 899.66 299.8 895.72 299.8 885.85 289.93 885.85 285.99 924 247.84 928.83 247.84 937.83 256.84"/>
          </g>
        </g>
        <g id="_x3C_Grid_Repeat_x3E_-76" data-name="_x3C_Grid_Repeat_x3E_">
          <g>
            <polygon class="cls-2" points="973.73 287.69 973.73 283.75 963.88 273.9 959.94 273.9 947.83 286.01 947.83 290.8 956.83 299.8 961.63 299.8 973.73 287.69"/>
            <polygon class="cls-2" points="1028.1 290.8 1028.1 286.01 989.93 247.84 985.99 247.84 976.12 257.71 976.12 261.65 1014.27 299.8 1019.1 299.8 1028.1 290.8"/>
          </g>
        </g>
        <g id="_x3C_Grid_Repeat_x3E_-77" data-name="_x3C_Grid_Repeat_x3E_">
          <g>
            <polygon class="cls-2" points="1064 259.95 1064 263.89 1054.15 273.74 1050.21 273.74 1038.1 261.63 1038.1 256.84 1047.1 247.84 1051.9 247.84 1064 259.95"/>
            <polygon class="cls-2" points="1118.37 256.84 1118.37 261.63 1080.2 299.8 1076.26 299.8 1066.39 289.93 1066.39 285.99 1104.54 247.84 1109.37 247.84 1118.37 256.84"/>
          </g>
        </g>
        <g id="_x3C_Grid_Repeat_x3E_-78" data-name="_x3C_Grid_Repeat_x3E_">
          <g>
            <polygon class="cls-2" points="1154.27 287.69 1154.27 283.75 1144.42 273.9 1140.48 273.9 1128.37 286.01 1128.37 290.8 1137.37 299.8 1142.17 299.8 1154.27 287.69"/>
            <polygon class="cls-2" points="1208.64 290.8 1208.64 286.01 1170.47 247.84 1166.53 247.84 1156.66 257.71 1156.66 261.65 1194.81 299.8 1199.64 299.8 1208.64 290.8"/>
          </g>
        </g>
        <g id="_x3C_Grid_Repeat_x3E_-79" data-name="_x3C_Grid_Repeat_x3E_">
          <g>
            <polygon class="cls-2" points="1244.54 259.95 1244.54 263.89 1234.69 273.74 1230.75 273.74 1218.64 261.63 1218.64 256.84 1227.64 247.84 1232.44 247.84 1244.54 259.95"/>
            <polygon class="cls-2" points="1298.91 256.84 1298.91 261.63 1260.74 299.8 1256.8 299.8 1246.93 289.93 1246.93 285.99 1285.08 247.84 1289.91 247.84 1298.91 256.84"/>
          </g>
        </g>
        <g id="_x3C_Grid_Repeat_x3E_-80" data-name="_x3C_Grid_Repeat_x3E_">
          <g>
            <polygon class="cls-2" points="1334.81 287.69 1334.81 283.75 1324.96 273.9 1321.02 273.9 1308.91 286.01 1308.91 290.8 1317.91 299.8 1322.71 299.8 1334.81 287.69"/>
            <polygon class="cls-2" points="1389.18 290.8 1389.18 286.01 1351.01 247.84 1347.07 247.84 1337.2 257.71 1337.2 261.65 1375.35 299.8 1380.18 299.8 1389.18 290.8"/>
          </g>
        </g>
        <g id="_x3C_Grid_Repeat_x3E_-81" data-name="_x3C_Grid_Repeat_x3E_">
          <g>
            <polygon class="cls-2" points="25.9 321.91 25.9 325.85 16.05 335.7 12.11 335.7 0 323.59 0 318.8 9 309.8 13.8 309.8 25.9 321.91"/>
            <polygon class="cls-2" points="80.27 318.8 80.27 323.59 42.1 361.76 38.16 361.76 28.29 351.89 28.29 347.95 66.44 309.8 71.27 309.8 80.27 318.8"/>
          </g>
        </g>
        <g id="_x3C_Grid_Repeat_x3E_-82" data-name="_x3C_Grid_Repeat_x3E_">
          <g>
            <polygon class="cls-2" points="116.17 349.65 116.17 345.71 106.32 335.86 102.38 335.86 90.27 347.97 90.27 352.76 99.27 361.76 104.07 361.76 116.17 349.65"/>
            <polygon class="cls-2" points="170.54 352.76 170.54 347.97 132.37 309.8 128.43 309.8 118.56 319.67 118.56 323.61 156.71 361.76 161.54 361.76 170.54 352.76"/>
          </g>
        </g>
        <g id="_x3C_Grid_Repeat_x3E_-83" data-name="_x3C_Grid_Repeat_x3E_">
          <g>
            <polygon class="cls-2" points="206.44 321.91 206.44 325.85 196.59 335.7 192.65 335.7 180.54 323.59 180.54 318.8 189.54 309.8 194.34 309.8 206.44 321.91"/>
            <polygon class="cls-2" points="260.81 318.8 260.81 323.59 222.64 361.76 218.7 361.76 208.83 351.89 208.83 347.95 246.98 309.8 251.81 309.8 260.81 318.8"/>
          </g>
        </g>
        <g id="_x3C_Grid_Repeat_x3E_-84" data-name="_x3C_Grid_Repeat_x3E_">
          <g>
            <polygon class="cls-2" points="296.71 349.65 296.71 345.71 286.86 335.86 282.92 335.86 270.81 347.97 270.81 352.76 279.81 361.76 284.61 361.76 296.71 349.65"/>
            <polygon class="cls-2" points="351.08 352.76 351.08 347.97 312.91 309.8 308.97 309.8 299.1 319.67 299.1 323.61 337.25 361.76 342.08 361.76 351.08 352.76"/>
          </g>
        </g>
        <g id="_x3C_Grid_Repeat_x3E_-85" data-name="_x3C_Grid_Repeat_x3E_">
          <g>
            <polygon class="cls-2" points="386.98 321.91 386.98 325.85 377.13 335.7 373.19 335.7 361.08 323.59 361.08 318.8 370.08 309.8 374.88 309.8 386.98 321.91"/>
            <polygon class="cls-2" points="441.35 318.8 441.35 323.59 403.18 361.76 399.24 361.76 389.37 351.89 389.37 347.95 427.52 309.8 432.35 309.8 441.35 318.8"/>
          </g>
        </g>
        <g id="_x3C_Grid_Repeat_x3E_-86" data-name="_x3C_Grid_Repeat_x3E_">
          <g>
            <polygon class="cls-2" points="477.25 349.65 477.25 345.71 467.4 335.86 463.46 335.86 451.35 347.97 451.35 352.76 460.35 361.76 465.15 361.76 477.25 349.65"/>
            <polygon class="cls-2" points="531.62 352.76 531.62 347.97 493.45 309.8 489.51 309.8 479.64 319.67 479.64 323.61 517.79 361.76 522.62 361.76 531.62 352.76"/>
          </g>
        </g>
        <g id="_x3C_Grid_Repeat_x3E_-87" data-name="_x3C_Grid_Repeat_x3E_">
          <g>
            <polygon class="cls-2" points="567.52 321.91 567.52 325.85 557.67 335.7 553.73 335.7 541.62 323.59 541.62 318.8 550.62 309.8 555.42 309.8 567.52 321.91"/>
            <polygon class="cls-2" points="621.89 318.8 621.89 323.59 583.72 361.76 579.78 361.76 569.91 351.89 569.91 347.95 608.06 309.8 612.89 309.8 621.89 318.8"/>
          </g>
        </g>
        <g id="_x3C_Grid_Repeat_x3E_-88" data-name="_x3C_Grid_Repeat_x3E_">
          <g>
            <polygon class="cls-2" points="657.79 349.65 657.79 345.71 647.94 335.86 644 335.86 631.89 347.97 631.89 352.76 640.89 361.76 645.69 361.76 657.79 349.65"/>
            <polygon class="cls-2" points="712.16 352.76 712.16 347.97 673.99 309.8 670.05 309.8 660.18 319.67 660.18 323.61 698.33 361.76 703.16 361.76 712.16 352.76"/>
          </g>
        </g>
        <g id="_x3C_Grid_Repeat_x3E_-89" data-name="_x3C_Grid_Repeat_x3E_">
          <g>
            <polygon class="cls-2" points="748.06 321.91 748.06 325.85 738.21 335.7 734.27 335.7 722.16 323.59 722.16 318.8 731.16 309.8 735.96 309.8 748.06 321.91"/>
            <polygon class="cls-2" points="802.43 318.8 802.43 323.59 764.26 361.76 760.32 361.76 750.45 351.89 750.45 347.95 788.6 309.8 793.43 309.8 802.43 318.8"/>
          </g>
        </g>
        <g id="_x3C_Grid_Repeat_x3E_-90" data-name="_x3C_Grid_Repeat_x3E_">
          <g>
            <polygon class="cls-2" points="838.33 349.65 838.33 345.71 828.48 335.86 824.54 335.86 812.43 347.97 812.43 352.76 821.43 361.76 826.23 361.76 838.33 349.65"/>
            <polygon class="cls-2" points="892.7 352.76 892.7 347.97 854.53 309.8 850.59 309.8 840.72 319.67 840.72 323.61 878.87 361.76 883.7 361.76 892.7 352.76"/>
          </g>
        </g>
        <g id="_x3C_Grid_Repeat_x3E_-91" data-name="_x3C_Grid_Repeat_x3E_">
          <g>
            <polygon class="cls-2" points="928.6 321.91 928.6 325.85 918.75 335.7 914.81 335.7 902.7 323.59 902.7 318.8 911.7 309.8 916.5 309.8 928.6 321.91"/>
            <polygon class="cls-2" points="982.97 318.8 982.97 323.59 944.8 361.76 940.86 361.76 930.99 351.89 930.99 347.95 969.14 309.8 973.97 309.8 982.97 318.8"/>
          </g>
        </g>
        <g id="_x3C_Grid_Repeat_x3E_-92" data-name="_x3C_Grid_Repeat_x3E_">
          <g>
            <polygon class="cls-2" points="1018.87 349.65 1018.87 345.71 1009.02 335.86 1005.08 335.86 992.97 347.97 992.97 352.76 1001.97 361.76 1006.77 361.76 1018.87 349.65"/>
            <polygon class="cls-2" points="1073.24 352.76 1073.24 347.97 1035.07 309.8 1031.13 309.8 1021.26 319.67 1021.26 323.61 1059.41 361.76 1064.24 361.76 1073.24 352.76"/>
          </g>
        </g>
        <g id="_x3C_Grid_Repeat_x3E_-93" data-name="_x3C_Grid_Repeat_x3E_">
          <g>
            <polygon class="cls-2" points="1109.14 321.91 1109.14 325.85 1099.29 335.7 1095.35 335.7 1083.24 323.59 1083.24 318.8 1092.24 309.8 1097.04 309.8 1109.14 321.91"/>
            <polygon class="cls-2" points="1163.51 318.8 1163.51 323.59 1125.34 361.76 1121.4 361.76 1111.53 351.89 1111.53 347.95 1149.68 309.8 1154.51 309.8 1163.51 318.8"/>
          </g>
        </g>
        <g id="_x3C_Grid_Repeat_x3E_-94" data-name="_x3C_Grid_Repeat_x3E_">
          <g>
            <polygon class="cls-2" points="1199.41 349.65 1199.41 345.71 1189.56 335.86 1185.62 335.86 1173.51 347.97 1173.51 352.76 1182.51 361.76 1187.31 361.76 1199.41 349.65"/>
            <polygon class="cls-2" points="1253.78 352.76 1253.78 347.97 1215.61 309.8 1211.67 309.8 1201.8 319.67 1201.8 323.61 1239.95 361.76 1244.78 361.76 1253.78 352.76"/>
          </g>
        </g>
        <g id="_x3C_Grid_Repeat_x3E_-95" data-name="_x3C_Grid_Repeat_x3E_">
          <g>
            <polygon class="cls-2" points="1289.68 321.91 1289.68 325.85 1279.83 335.7 1275.89 335.7 1263.78 323.59 1263.78 318.8 1272.78 309.8 1277.58 309.8 1289.68 321.91"/>
            <polygon class="cls-2" points="1344.05 318.8 1344.05 323.59 1305.88 361.76 1301.94 361.76 1292.07 351.89 1292.07 347.95 1330.22 309.8 1335.05 309.8 1344.05 318.8"/>
          </g>
        </g>
        <g id="_x3C_Grid_Repeat_x3E_-96" data-name="_x3C_Grid_Repeat_x3E_">
          <g>
            <polygon class="cls-2" points="1379.95 349.65 1379.95 345.71 1370.1 335.86 1366.16 335.86 1354.05 347.97 1354.05 352.76 1363.05 361.76 1367.85 361.76 1379.95 349.65"/>
            <polygon class="cls-2" points="1434.32 352.76 1434.32 347.97 1396.15 309.8 1392.21 309.8 1382.34 319.67 1382.34 323.61 1420.49 361.76 1425.32 361.76 1434.32 352.76"/>
          </g>
        </g>
        <g id="_x3C_Grid_Repeat_x3E_-97" data-name="_x3C_Grid_Repeat_x3E_">
          <polygon class="cls-2" points="35.14 380.76 35.14 385.55 -3.04 423.72 -6.97 423.72 -16.84 413.85 -16.84 409.91 21.31 371.76 26.14 371.76 35.14 380.76"/>
        </g>
        <g id="_x3C_Grid_Repeat_x3E_-98" data-name="_x3C_Grid_Repeat_x3E_">
          <g>
            <polygon class="cls-2" points="71.03 411.61 71.03 407.67 61.18 397.82 57.24 397.82 45.13 409.93 45.13 414.72 54.13 423.72 58.93 423.72 71.03 411.61"/>
            <polygon class="cls-2" points="125.4 414.72 125.4 409.93 87.23 371.76 83.29 371.76 73.42 381.63 73.42 385.57 111.57 423.72 116.4 423.72 125.4 414.72"/>
          </g>
        </g>
        <g id="_x3C_Grid_Repeat_x3E_-99" data-name="_x3C_Grid_Repeat_x3E_">
          <g>
            <polygon class="cls-2" points="161.3 383.87 161.3 387.81 151.45 397.66 147.51 397.66 135.4 385.55 135.4 380.76 144.4 371.76 149.2 371.76 161.3 383.87"/>
            <polygon class="cls-2" points="215.67 380.76 215.67 385.55 177.5 423.72 173.56 423.72 163.69 413.85 163.69 409.91 201.84 371.76 206.67 371.76 215.67 380.76"/>
          </g>
        </g>
        <g id="_x3C_Grid_Repeat_x3E_-100" data-name="_x3C_Grid_Repeat_x3E_">
          <g>
            <polygon class="cls-2" points="251.57 411.61 251.57 407.67 241.72 397.82 237.78 397.82 225.67 409.93 225.67 414.72 234.67 423.72 239.47 423.72 251.57 411.61"/>
            <polygon class="cls-2" points="305.94 414.72 305.94 409.93 267.77 371.76 263.83 371.76 253.96 381.63 253.96 385.57 292.11 423.72 296.94 423.72 305.94 414.72"/>
          </g>
        </g>
        <g id="_x3C_Grid_Repeat_x3E_-101" data-name="_x3C_Grid_Repeat_x3E_">
          <g>
            <polygon class="cls-2" points="341.84 383.87 341.84 387.81 331.99 397.66 328.05 397.66 315.94 385.55 315.94 380.76 324.94 371.76 329.74 371.76 341.84 383.87"/>
            <polygon class="cls-2" points="396.21 380.76 396.21 385.55 358.04 423.72 354.1 423.72 344.23 413.85 344.23 409.91 382.38 371.76 387.21 371.76 396.21 380.76"/>
          </g>
        </g>
        <g id="_x3C_Grid_Repeat_x3E_-102" data-name="_x3C_Grid_Repeat_x3E_">
          <g>
            <polygon class="cls-2" points="432.11 411.61 432.11 407.67 422.26 397.82 418.32 397.82 406.21 409.93 406.21 414.72 415.21 423.72 420.01 423.72 432.11 411.61"/>
            <polygon class="cls-2" points="486.48 414.72 486.48 409.93 448.31 371.76 444.37 371.76 434.5 381.63 434.5 385.57 472.65 423.72 477.48 423.72 486.48 414.72"/>
          </g>
        </g>
        <g id="_x3C_Grid_Repeat_x3E_-103" data-name="_x3C_Grid_Repeat_x3E_">
          <g>
            <polygon class="cls-2" points="522.38 383.87 522.38 387.81 512.53 397.66 508.59 397.66 496.48 385.55 496.48 380.76 505.48 371.76 510.28 371.76 522.38 383.87"/>
            <polygon class="cls-2" points="576.75 380.76 576.75 385.55 538.58 423.72 534.64 423.72 524.77 413.85 524.77 409.91 562.92 371.76 567.75 371.76 576.75 380.76"/>
          </g>
        </g>
        <g id="_x3C_Grid_Repeat_x3E_-104" data-name="_x3C_Grid_Repeat_x3E_">
          <g>
            <polygon class="cls-2" points="612.65 411.61 612.65 407.67 602.8 397.82 598.86 397.82 586.75 409.93 586.75 414.72 595.75 423.72 600.55 423.72 612.65 411.61"/>
            <polygon class="cls-2" points="667.02 414.72 667.02 409.93 628.85 371.76 624.91 371.76 615.04 381.63 615.04 385.57 653.19 423.72 658.02 423.72 667.02 414.72"/>
          </g>
        </g>
        <g id="_x3C_Grid_Repeat_x3E_-105" data-name="_x3C_Grid_Repeat_x3E_">
          <g>
            <polygon class="cls-2" points="702.92 383.87 702.92 387.81 693.07 397.66 689.13 397.66 677.02 385.55 677.02 380.76 686.02 371.76 690.82 371.76 702.92 383.87"/>
            <polygon class="cls-2" points="757.29 380.76 757.29 385.55 719.12 423.72 715.18 423.72 705.31 413.85 705.31 409.91 743.46 371.76 748.29 371.76 757.29 380.76"/>
          </g>
        </g>
        <g id="_x3C_Grid_Repeat_x3E_-106" data-name="_x3C_Grid_Repeat_x3E_">
          <g>
            <polygon class="cls-2" points="793.19 411.61 793.19 407.67 783.34 397.82 779.4 397.82 767.29 409.93 767.29 414.72 776.29 423.72 781.09 423.72 793.19 411.61"/>
            <polygon class="cls-2" points="847.56 414.72 847.56 409.93 809.39 371.76 805.45 371.76 795.58 381.63 795.58 385.57 833.73 423.72 838.56 423.72 847.56 414.72"/>
          </g>
        </g>
        <g id="_x3C_Grid_Repeat_x3E_-107" data-name="_x3C_Grid_Repeat_x3E_">
          <g>
            <polygon class="cls-2" points="883.46 383.87 883.46 387.81 873.61 397.66 869.67 397.66 857.56 385.55 857.56 380.76 866.56 371.76 871.36 371.76 883.46 383.87"/>
            <polygon class="cls-2" points="937.83 380.76 937.83 385.55 899.66 423.72 895.72 423.72 885.85 413.85 885.85 409.91 924 371.76 928.83 371.76 937.83 380.76"/>
          </g>
        </g>
        <g id="_x3C_Grid_Repeat_x3E_-108" data-name="_x3C_Grid_Repeat_x3E_">
          <g>
            <polygon class="cls-2" points="973.73 411.61 973.73 407.67 963.88 397.82 959.94 397.82 947.83 409.93 947.83 414.72 956.83 423.72 961.63 423.72 973.73 411.61"/>
            <polygon class="cls-2" points="1028.1 414.72 1028.1 409.93 989.93 371.76 985.99 371.76 976.12 381.63 976.12 385.57 1014.27 423.72 1019.1 423.72 1028.1 414.72"/>
          </g>
        </g>
        <g id="_x3C_Grid_Repeat_x3E_-109" data-name="_x3C_Grid_Repeat_x3E_">
          <g>
            <polygon class="cls-2" points="1064 383.87 1064 387.81 1054.15 397.66 1050.21 397.66 1038.1 385.55 1038.1 380.76 1047.1 371.76 1051.9 371.76 1064 383.87"/>
            <polygon class="cls-2" points="1118.37 380.76 1118.37 385.55 1080.2 423.72 1076.26 423.72 1066.39 413.85 1066.39 409.91 1104.54 371.76 1109.37 371.76 1118.37 380.76"/>
          </g>
        </g>
        <g id="_x3C_Grid_Repeat_x3E_-110" data-name="_x3C_Grid_Repeat_x3E_">
          <g>
            <polygon class="cls-2" points="1154.27 411.61 1154.27 407.67 1144.42 397.82 1140.48 397.82 1128.37 409.93 1128.37 414.72 1137.37 423.72 1142.17 423.72 1154.27 411.61"/>
            <polygon class="cls-2" points="1208.64 414.72 1208.64 409.93 1170.47 371.76 1166.53 371.76 1156.66 381.63 1156.66 385.57 1194.81 423.72 1199.64 423.72 1208.64 414.72"/>
          </g>
        </g>
        <g id="_x3C_Grid_Repeat_x3E_-111" data-name="_x3C_Grid_Repeat_x3E_">
          <g>
            <polygon class="cls-2" points="1244.54 383.87 1244.54 387.81 1234.69 397.66 1230.75 397.66 1218.64 385.55 1218.64 380.76 1227.64 371.76 1232.44 371.76 1244.54 383.87"/>
            <polygon class="cls-2" points="1298.91 380.76 1298.91 385.55 1260.74 423.72 1256.8 423.72 1246.93 413.85 1246.93 409.91 1285.08 371.76 1289.91 371.76 1298.91 380.76"/>
          </g>
        </g>
        <g id="_x3C_Grid_Repeat_x3E_-112" data-name="_x3C_Grid_Repeat_x3E_">
          <g>
            <polygon class="cls-2" points="1334.81 411.61 1334.81 407.67 1324.96 397.82 1321.02 397.82 1308.91 409.93 1308.91 414.72 1317.91 423.72 1322.71 423.72 1334.81 411.61"/>
            <polygon class="cls-2" points="1389.18 414.72 1389.18 409.93 1351.01 371.76 1347.07 371.76 1337.2 381.63 1337.2 385.57 1375.35 423.72 1380.18 423.72 1389.18 414.72"/>
          </g>
        </g>
      </g>
    </g>
  </g>
</svg>