<svg xmlns="http://www.w3.org/2000/svg" xmlns:xlink="http://www.w3.org/1999/xlink" width="92" zoomAndPan="magnify" viewBox="0 0 69 26.249999" height="35" preserveAspectRatio="xMidYMid meet" version="1.0"><defs><g/><clipPath id="bcb554abb5"><path d="M 0.160156 6 L 1 6 L 1 7 L 0.160156 7 Z M 0.160156 6 " clip-rule="nonzero"/></clipPath><clipPath id="04be026ee6"><rect x="0" width="2" y="0" height="8"/></clipPath></defs><path fill="#135562" d="M 25.328125 19.632812 L 25.328125 17.445312 L 7.90625 0 L 6.105469 0 L 1.601562 4.511719 L 1.601562 6.3125 L 19.015625 23.746094 L 21.222656 23.746094 Z M 25.328125 19.632812 " fill-opacity="1" fill-rule="nonzero"/><path fill="#135562" d="M 41.71875 5.535156 L 41.71875 7.335938 L 37.222656 11.835938 L 35.421875 11.835938 L 29.894531 6.300781 L 29.894531 4.113281 L 34.003906 0 L 36.195312 0 Z M 41.71875 5.535156 " fill-opacity="1" fill-rule="nonzero"/><path fill="#135562" d="M 66.535156 4.113281 L 66.535156 6.300781 L 49.113281 23.746094 L 47.3125 23.746094 L 42.808594 19.234375 L 42.808594 17.433594 L 60.222656 0 L 62.429688 0 Z M 66.535156 4.113281 " fill-opacity="1" fill-rule="nonzero"/><g transform="matrix(1, 0, 0, 1, 33, 15)"><g clip-path="url(#04be026ee6)"><g clip-path="url(#bcb554abb5)"><g fill="#000000" fill-opacity="1"><g transform="translate(0.179926, 6.135722)"><g/></g></g></g></g></g></svg>